<?xml version="1.0" encoding="utf-8"?>
<!-- Generator: Adobe Illustrator 27.8.0, SVG Export Plug-In . SVG Version: 6.00 Build 0)  -->
<svg version="1.1" id="Layer_1" xmlns="http://www.w3.org/2000/svg" xmlns:xlink="http://www.w3.org/1999/xlink" x="0px" y="0px"
	 viewBox="0 0 2809.3 1800.3" style="enable-background:new 0 0 2809.3 1800.3;" xml:space="preserve">
<style type="text/css">
	.st0{fill:#F9F9FD;stroke:#231F20;stroke-miterlimit:10;}
	.st1{fill:#F6C7AB;}
	.st2{fill:none;stroke:#FDF7F2;stroke-miterlimit:10;}
	.st3{fill:#3B3535;}
	.st4{fill:#433F3F;}
	.st5{fill:#010101;}
	.st6{fill:#FFFFFF;stroke:#010101;stroke-miterlimit:10;}
	.st7{fill:none;stroke:#010101;stroke-width:0.5;stroke-miterlimit:10;}
	.st8{fill:#281F26;}
	.st9{fill:#302B2E;}
	.st10{fill:none;stroke:#090909;stroke-width:0.75;stroke-miterlimit:10;}
	.st11{fill:#FFFFFF;}
	.st12{fill:#E93938;}
	.st13{fill:none;stroke:#FFFFFF;stroke-miterlimit:10;}
	.st14{fill:#FFFFFF;stroke:#231F20;stroke-width:0.5;stroke-miterlimit:10;}
	.st15{opacity:0.8;fill:#F8D9CF;enable-background:new    ;}
	.st16{fill:#3B87C8;}
	.st17{fill:#E1F1F4;}
	.st18{fill:#FDD3B6;}
	.st19{fill:#F9DC62;}
	.st20{fill:#3D84C5;}
	.st21{fill:#1372BA;}
	.st22{fill:#A0DBEA;}
	.st23{fill:#044B78;}
	.st24{opacity:0.6;fill:#A0DBEA;enable-background:new    ;}
	.st25{fill:#1773BA;}
	.st26{fill:#E9C923;}
	.st27{fill:#7CD1EE;}
	.st28{fill:#11516C;}
	.st29{fill:#408DB8;}
	.st30{opacity:0.7;fill:url(#SVGID_1_);enable-background:new    ;}
</style>
<g id="Layer_3">
	<rect x="-471.1" y="-397.9" class="st0" width="3712.9" height="2776.4"/>
</g>
<g id="Layer_1_00000167387926991712816180000010070613488899006614_">
	<g>
		<path class="st1" d="M1889,1111.2c-17.6,18.6-68.8,75.5-78.7,84c-10.8,9.2-11.4,14.9-23.5,4.9c-19.8-16.4-135.5-166.3-138.2-188.9
			c-2.8-23.1,4.5-52.9-7.3-76.9c-9.1-18.5-22.6-29.5-28.4-50.2c-2.3-8-2.3-32.1-9.4-36.1c-13.4-7.5-18.5,19.6-18.8,26.3
			c-0.9,17-1.2,15.6-14.2,25c-9.4,6.8-14,15.3-18,25.9c-7.6,20.1-10.1,50-4.1,71c7.2,25.4,33.7,22.5,50.4,37.2
			c15.1,13.4,134.6,377.8,221.9,329.9c27.8-15.2,117.2-141.9,130.1-146.1"/>
		<g>
			<g>
				<path class="st2" d="M2331.9,393.9c39.9-27.4,74-47.5,102.4-60"/>
				<path class="st1" d="M2263.7,767.8c-8.7,39.6,38.3,63.7-18.1,99.8c-13.9,8.9-50.7,75.5-36.9,52.8c4-6.5,3.8-4.4-0.7,4.4
					c-4.6,9-3.7,31.9-4.3,41.6c-1,17.1,1.3,35.4,4.2,51.9c7,40.4-13.4,137.2-2.8,175.4c10-18.9,56.2-57.6,73.3-72.9
					c19.8-17.8,60-48.6,82.1-64.8c24-17.6,33.9-58.9,48.6-84c11.6-19.9,42.5-58.7,21.9-66.2c-2.6-0.9,12.2,4.7-4.8-3
					c-4.3-1.9,7.2-7.7-11.5-22.8c-24.8-20.1-18.2-95.1-12.5-121.2c19.4-88.5,43-127,10.6-84.2c-0.1-0.5-0.3-1.1-0.4-1.6
					c-24.5-1-49.4,34.6-67.8,49c-27,21.1-51.3,34-85.4,35.5"/>
				<path class="st3" d="M2489.2,636.2c80.1,3.1,65.6,132.9-22.4,133.2c-56.9,0.1-51.7-35.2-48.9-69.5c2.7-33.2,26.4-54,62.1-60.5"
					/>
				<path class="st1" d="M2301.2,381.6C2319.9,378.4,2301.2,381.6,2301.2,381.6s-5.4,0.6-34.8,18.3c-19.9,12-39.8,24-52.7,46.4
					l-15.6,27c-5,8.6-4.5,20.4-7.6,29.4c-3.3,9.5-5.1,19.5-7.1,29.5c-2.1,10.7,2.9,21.9,1.9,32.4c-0.9,10.3-9.4,32-11.8,41.7
					c-4.9,19.3,3.4,46.6,9,65.4c9.4,31.1,14.2,43.5,22.8,69.2c8.1,24.2,10.7,33.8,31.6,50.8c8.4,6.8,20,10.3,34.9,10.2
					c32-0.3,61.7-17.5,65.5-19.6c28.6-15,39.3-25.7,51.9-36.3c17.4-14.7,22.1-20.2,36.1-40.5c26.2-37.8,31.9-46,31.9-46
					s3.2-7.4,2.6-5.4l-2.6,5.4l10-18.6c2-5.4,4.6-13.5,13.6-45.7c-0.2,1.9-0.1,0.3-0.2,1.9c-0.1,1.4-0.1-3.7,0-5.1
					c0.1-1.4-0.2-2.5,0,0c0.2,3.3,0,0,0,0s0.1-5.8,0,0l-0.1,5.8l0.3-2.5c-6.8-6.1-15.2-72.5-15.2-72.5
					c-4.6-17.9-10.2-36.9-20.4-52.8c-8.9-14-19.7-23.5-32-34.9c-23-21.4-43.7-36.4-73.5-47.6c-20.8-7.8-25.9-7.3-25.9-7.3
					c-4.9-0.9,0.5-2.1-4.9-0.9C2306.8,379.7,2301.2,381.6,2301.2,381.6"/>
				<path class="st4" d="M2301.9,541.4c9.6-2.9,16.3-3.1,26.5-5.5c12.9-3,21.6-4,30.6-4.8c8.8-0.8,14.5-1,24,1.2
					c16,3.7,20.8,18.2,28.1,25.5c-6.8-2.1-16.5-10-23-14c-8.7-5.4-21.7-4.6-31.1-2.5c-12,2.5-24.7,7.5-36.5,9.7
					c-4.2,0.8-23.9,2.1-22-6.4"/>
				<path class="st4" d="M2246.2,529.3c-10.1-8.9-58.2-37.1-62-16.6c11.2,1.6,22.5,8.6,32.5,13.8c8,4.2,21.7,13.4,30.9,13.3
					c5.3-3.3,3.9-6,1.1-8.5"/>
				<path class="st5" d="M2222.5,552.6c-3-1.5-5-1.9-7.4-4.4c-1.8-1.9-4.2-6.3-4.2-9c-0.9,3.4,1.5,6.9,2.4,9.8"/>
				<path class="st5" d="M2226.8,551.7c-3.1-1.2-5.2-1.4-7.9-3.7c-2-1.7-4.8-5.9-5.1-8.6c-0.6,3.5,2.2,6.7,3.4,9.6"/>
				<path class="st5" d="M2230.7,550.2c-3.2-0.9-5.3-0.9-8.2-2.9c-2.2-1.5-5.4-5.4-5.9-8c-0.2,3.5,2.9,6.4,4.3,9.2"/>
				<path class="st5" d="M2233.2,553c-3.2-0.9-3.6-2.5-6.6-4.5c-2.2-1.5-5.4-5.4-5.9-8c-0.2,3.5,2.9,6.4,4.3,9.2"/>
				<path class="st5" d="M2220.6,552.7c-3.1-1.2-5.2-1.4-7.9-3.6c-2-1.7-4.8-5.9-5.1-8.5c-0.6,3.5,2.2,6.7,3.4,9.5"/>
				<path class="st5" d="M2217,552.2c-3.1-1.2-5.1-1.5-7.8-3.8c-2-1.7-4.7-6-4.9-8.6c-0.6,3.5,2.1,6.7,3.2,9.6"/>
				<path class="st5" d="M2214.2,550.7c-3.3-0.7-5.3-0.7-8.3-2.5c-2.2-1.4-5.6-5.2-6.2-7.8c-0.1,3.5,3.1,6.3,4.7,9"/>
				<path class="st5" d="M2212.8,550.7c-3.9-0.5-6.2-0.1-9.9-2.1c-2.8-1.5-7.1-5.7-8.1-8.8c0.3,4.4,4.4,7.4,6.6,10.5"/>
				<path class="st5" d="M2209,553.8c-3.8-0.6-6-0.1-9.7-2.6c-2.8-1.9-7.1-7.3-8.2-11.4c0.5,5.7,4.5,9.6,6.8,13.6"/>
				<path class="st5" d="M2204.3,552.6c-3.4-0.2-5.4,0.5-8.9-1.5c-2.6-1.5-7.1-6.2-8.5-9.8c1,5.2,5,8.5,7.4,12"/>
				<path class="st5" d="M2198.3,552.3c-3.3-0.5-5.4-0.3-8.5-2c-2.4-1.3-6-4.8-6.9-7.3c0.2,3.5,3.6,6.1,5.5,8.6"/>
				<path class="st6" d="M2195.8,554.5c13.4-9,28.9-9.7,37.4-1.5c10.7,10.1,11.3,14.9,14.6,24.2c-12-1.6-13.8-0.1-25.8-2.6
					C2208.9,571.8,2196.3,565.4,2195.8,554.5"/>
				<path class="st7" d="M2247.4,576.9c-2.8-9.3-7-17.8-15-24.1c-8.1-6.3-21.4-6.8-30.9-2c-3.3,1.7-5.6,5.3-11.5,1.2"/>
				<path class="st8" d="M2189,551.4c4.7,0.9,6,0.7,10.2-1.4c2.9-1.4,6.5-1.6,9.6-2.3c9.4-2.1,17.6,0.3,24.9,6.1
					c-1.5-0.8-2.1-2.7-3.7-3.6c-1.8-1.1-3.8-1.3-6-1.7c-4.4-0.8-8.6-1-12.9,0c-7.6,1.8-16.5,10.2-23.4,3"/>
				<path class="st9" d="M2222.4,548.3c-6-0.6-17.7,4.4-22.8,6.2c-5.6,2-10.8,0.8-14.1-4.1c4.5,2.8,8.4,2.1,13.2,0.2
					c5.9-2.3,9.7-4,16.3-2.9"/>
				<path class="st10" d="M2187.6,547.4c3.6,2.5,13.2-0.7,16.8-2.1c6.3-2.5,13.3-1.8,19.4,0.1c5.8,1.8,9.7,3.4,14.2,7.6
					c4.4,4,7.4,9.5,9.6,15.2"/>
				<path class="st1" d="M2447,560.2c0.1-38-5.4-77.4-29.9-108.5c-15.1-19.2-37.7-35.5-58.9-47.2c-21.7-12-46.6-16.9-71.2-18.4
					c-22-1.3-37.9-2.2-39.2,24.5c-0.6,11.4,1.3,21.2,8.2,30.3c14.7,19.3,44.3,27.9,66.9,33.4c25.4,6.2,48.4,16.6,69.4,31.6
					c10.4,7.4,20.7,15,29,24.9c7.1,8.4,11.7,18.8,17.2,27.5"/>
				<g>
					<path class="st11" d="M2222.7,693.2c0,9.4,1.9,14.5,7.9,21.8c7.7,9.5,15.6,17.7,27.7,21.1c25,7,44.7-16.7,66.1-23.3
						c2.3-0.7,7.4-1.8,6.9-4.8c-8.4-0.4-16.4,0.4-24.9-0.8c-13.1-1.9-25.6-4.2-38.6-2.4c-8.2,1.2-16.4-0.8-23.8-4
						c-4.1-1.8-8.4-3.6-12.8-5c-2.9-0.9-6.6-0.2-9.1-1.2"/>
					<path class="st12" d="M2225.6,698.5c0.7,4.5,6.1,10.5,8.9,14c3.8,4.7,9.3,9.3,14.6,11.9c9.9,4.8,24.4,2.9,35.2,0.7
						c5-1,10.4-1.5,15.2-3.6c6.4-2.8,0,0,4.5-2c10.7-4.7,21.6-10.1,33.5-16.6c-7.4,13-17.5,20.4-26.5,27.1
						c-12,9.1-27.7,16.9-43.4,17.4c-7.4,0.2-24-1.5-33.2-10.9c-8.4-8.7-12.8-22.2-14.7-33.5c-0.6-3.6-0.7-8.6-2.7-11.6
						c2.8,2.9,5.4,5.9,8.9,8.5"/>
					<path class="st12" d="M2214.7,688.9c14.7,2.5,25.7,3.7,34.2,6.7c5.5,1.9,5.3,3.1,9.6,6.5c3.3,2.6,7.7-3.2,13.6-4.1
						c11.1-1.7,16.1,0.6,30.6,3.8c21.8,4.8,28,3.5,34.8,1.2c-15.9,12-39.9,7.8-61.4,7.7c-10.8,0-24.1-2.2-33.8-5.2
						c-10.5-3.2-19.3-4.7-26.2-15.9"/>
				</g>
				<g>
					<path class="st9" d="M2219.9,555.8c-2.1,2.7-2.6,5.1-2,8.8c0.5,3.1,2.6,6.5,5.1,8.5c2.3,1.8,7.6,3.2,10.6,2.9
						c4.2-0.5,8-4.7,10.6-7.7c-1.5-2.3-1.8-4.3-3.3-6.7c-1.4-2.1-4.6-5-6.2-6.9c-2.9-3.2-5.1-4.8-11.1-2.2"/>
					<path class="st11" d="M2221.6,560.6c-0.9,1.7-0.2,3.8,1.5,4.7s3.9,0.2,4.8-1.5c0.9-1.7,0.2-3.8-1.5-4.7
						S2222.5,558.9,2221.6,560.6z"/>
					<path class="st11" d="M2235.3,566.8c0.4-2.5,1.2-4.6-0.5-6.9c-0.8-1.1-1.8-2-3.1-2.5c-0.4-0.2-1.4-0.3-1.4,0.4
						c0,0.3,0.8,1.4,1,1.6c0.5,0.6,1.2,1.1,1.7,1.7c0.8,0.9,1.2,1.6,1.4,2.8c0.1,0.8,0,1.6,0.1,2.3c0,0.3,0.1,0.9,0.6,0.9
						c0.3,0,0.6-0.4,0.5-0.7"/>
				</g>
				<path class="st13" d="M2278.8,403.6c26.8-16.8,30-22,39.7-26.3c12.1-5.4,24.2-13.9,36.5-19.9"/>
				<path class="st3" d="M2291,397.7c-4.3-3.4,47.4,33.7,54,41.8c15.1,18.4,24.9,32.6,32.1,41.8c16.7,21.1,38.5,62,48.8,88.1
					c11.4,28.8,1,54.3,11.5,83.6c5,14-6.5-1.9-0.9-13c5.1-10,16.8-7.5,23.7-18.9c2-3.3,60.7-46.2,37.9,18.9l-1,2.9
					c0,0,77.3-62.2,43.1-171.3c-21.1-67.1-91-124.2-160.2-130.7c-20.7-1.9-11-2.2-32.9,8.4c-16.7,8.1-54.9,27.2-64.4,43.8"/>
				<path class="st3" d="M2282.8,393c-41.3,19.9-64.4,44.9-88.3,91.1c1.6-22.6,4.2-39.9,15.2-58c14.5-23.9,41.2-50.5,64.3-62.8
					c19.4-10.2,73.6-30.6,96.5-22.1c24,9-39.8,43.3-32,30.4c1.2-2,19.4-18.7-16.2,14"/>
				<g>
					<path class="st5" d="M2336.2,567.3c3-0.6,5.9-0.6,8.7-2.4c2.1-1.4,4.3-5,5.1-7.7c-0.1,3.8-3.2,6.5-4.7,9.3"/>
					<path class="st5" d="M2333.8,565.7c2.9-0.4,5.7-0.3,8.3-1.8c2-1.1,4-4.2,4.6-6.6c0,3.3-2.8,5.7-4.3,8"/>
					<path class="st5" d="M2329.6,566c2.9-0.4,5.8-0.3,8.4-1.8c2-1.1,3.9-4.2,4.4-6.6c0.2,3.2-2.7,5.6-4,7.9"/>
					<path class="st5" d="M2326.5,567c3-0.7,6-0.9,8.5-2.5c1.9-1.2,3.4-4.2,3.5-6.4c0.7,3-1.8,5.4-2.8,7.7"/>
					<path class="st5" d="M2345.1,569c3.1-0.3,5.9-0.1,8.9-1.6c2.2-1.2,4.6-4.6,5.5-7.3c-0.3,3.7-3.6,6.3-5.3,8.9"/>
					<path class="st5" d="M2349.2,568.3c3.1,0,5.9,0.5,8.9-0.8c2.3-1,5-4.2,6.1-6.7c-0.6,3.7-4.1,5.9-6,8.3"/>
					<path class="st5" d="M2338.9,568.9c3-0.6,4.9-0.4,7.7-2.2c2.1-1.4,5.3-5.2,6.1-7.9c-0.1,3.8-3.2,6.5-4.7,9.3"/>
					<path class="st5" d="M2353.7,570c3.1,0.1,4.9,0.6,7.9-0.6c2.3-0.9,6.1-4,7.2-6.5c-0.7,3.7-4.2,5.8-6.2,8.1"/>
					<path class="st5" d="M2357.1,573.4c3.1,0.1,4.9,0.6,7.9-0.6c2.3-0.9,6.1-4,7.2-6.5c-0.6,3-5.1,6.9-6.2,8.1"/>
					<path class="st5" d="M2359.6,574.5c3.3,0.5,5.1,1.5,8.9,0.5c2.9-0.7,8.1-3.7,10.2-6.5c-2.1,4.2-6.6,6.1-9.6,8.6"/>
					<path class="st5" d="M2364.1,575.7c3.6,0.8,5.6,2,9.6,1.3c3-0.5,8.5-3.4,10.6-6.2c-2,4.3-7.6,7.1-10.7,9.5"/>
					<path class="st5" d="M2368.9,578.4c3.3,0.6,5,1.6,8.7,0.8c2.8-0.6,7.8-3.3,9.8-6c-1.9,4-7,6.7-9.9,9"/>
					<path class="st5" d="M2373.5,581c3.3,0.6,5,1.6,8.7,0.8c2.8-0.6,7.8-3.3,9.8-6c-1.9,4-8.4,6.3-11.3,8.6"/>
					<path class="st5" d="M2341.8,568.6c3.1-0.3,4.9,0,7.8-1.6c2.2-1.2,5.7-4.7,6.6-7.4c-0.3,3.7-3.6,6.3-5.3,8.9"/>
					<path class="st6" d="M2309.3,584.8c2.7-15,22.7-21.1,33.7-18.6c6,1.4,13,4.1,18.4,7.6c5.3,3.5,10.4,8,16.4,10.4
						c-3.3,2.1-7.8,4.2-14.9,6.1c-1.7,0.5-9.9,3.6-20.5,2.2C2325.8,590.5,2315.9,587.5,2309.3,584.8"/>
					<path class="st8" d="M2338.3,565.6c0.5-1,10.3-1.5,14,0c4,1.7,7.9,3.1,11.1,6.3c6.9,6.9,13.7,10,22.9,9.8
						c-2.1,0.6-3.7,2.5-5.8,2.7c-1.9,0.3-3.9-0.6-5.7-1.6c-3.8-2.2-7.8-5.3-11.3-8c-3.5-2.8-7.5-4.3-11.6-6
						C2348,567.1,2342.1,565.1,2338.3,565.6c1,0.2,4.3,2,4.7,0.6"/>
					<path class="st8" d="M2344.2,564.6c3.4,1.4,6.9,2.7,9.9,4.8c2.8,1.9,5.1,4.5,7.8,6.6c2.8,2.2,5.7,4.7,8.9,6.4
						c2.9,1.5,8.6,3.2,11.5,1.9c-3.2-1.2-5.9-2-8.8-4.1c-2.9-2.1-6-4.8-8.9-6.8c-3.2-2.1-6.4-3.6-10-5.2c-3.9-1.6-7.9-1.6-11.7-2.9"
						/>
					<path class="st10" d="M2309,575.3c12.7-14.4,27.3-16.9,40.5-14.4c6.8,1.3,14.5,4.7,20.4,8.2c6.5,3.9,15.4,8.9,23.2,6.1"/>
					<g>
						<path class="st14" d="M2331.2,575.1c-2.2,5.9,1.6,12.6,8.5,14.9c6.9,2.3,14.2,0.6,17-5.2c4.2-8.9-2.2-14-9.1-16.3
							C2340.7,566.3,2333.4,569.2,2331.2,575.1L2331.2,575.1z"/>
						<path class="st3" d="M2332.6,574.8c-2.3,6.3,1.3,13.3,8.1,15.6c6.8,2.3,14.3-1,16.6-7.3c2.3-6.3-1.3-13.3-8.1-15.6
							C2342.4,565.2,2335,568.4,2332.6,574.8z"/>
						<path class="st11" d="M2353.4,579.7c-0.7,1.5-2.4,2.2-4,1.5c-1.5-0.7-2.2-2.4-1.6-3.9c0.7-1.5,2.4-2.2,4-1.5
							C2353.3,576.5,2354,578.2,2353.4,579.7z"/>
						<path class="st11" d="M2339.5,570.5c1.9-1,3.4-2.2,5.8-1.6c1.1,0.3,2.2,0.9,2.9,1.7c0.3,0.3,0.6,1,0.1,1.2
							c-0.3,0.1-1.3-0.2-1.6-0.3c-0.6-0.2-1.2-0.6-1.9-0.8c-1-0.4-1.7-0.5-2.7-0.3c-0.7,0.1-1.3,0.5-1.9,0.6c-0.3,0-0.8,0.2-0.9-0.2
							c-0.1-0.3,0.2-0.6,0.4-0.6"/>
					</g>
				</g>
				<path class="st1" d="M2446.5,637.8c-0.1-16.2,20.1-46.2,38.8-47.2c19.2-1,21.4,34,17.1,48.2c-5.5,18-23.1,16.9-36.6,39.4
					c-9.4,15.5-31.7-2.9-34.7-19.1c-2.5-12.3,1.9,0.3,5.9-10.8C2440.3,638.7,2444.3,648.1,2446.5,637.8"/>
				<g>
					<path class="st15" d="M2269.5,565.2c3,10.3,1.1,20.4-1.4,31.1c-2.4,10.3-11.2,20.7-17.4,29.8c-6,8.8-12.1,13.1-14.3,22.9
						c-3.2,14.4,11.6,15.3,24.7,18.4c4.3,1,10.2,3.3,12.8,4.4c-6.3,1.2-10.3-2.5-15.7-3.9c-5.6-1.5-13.3-0.3-18.7-2.6
						c-11.5-4.8-11.5-16-5.7-24.2c12.7-18.1,28.3-32.6,33.5-52.3c2-7.7,2.6-16.9,2.2-24.8"/>
					<path class="st15" d="M2293.9,638.1c2.5,9.6,9.7,25.7-5.3,27.4c-11.3,1.3-18.7-15.8-31.2-6.1c10.3,0.1,20.1,7.7,30.1,8.9
						c15.3,1.7,14.4-15.3,9.2-25.1"/>
				</g>
			</g>
			<path class="st16" d="M2239.7,387.4c16.1-21.9,32-31.5,53.5-40.3c24-9.8,56.4-14.7,84.2-12c34,3.3,64.8,14.9,92.5,34.3
				c33.2,23.3,58.5,51.6,95.7,63.3c-55.4,28.6-12.6,97.1-42.7,142.1c-12.8,19.2-31.1,19.9-47.1,38.2c-15,17.1-27.1,29.7-42.5,48.1
				c-3.2-27.7-0.6-84.2-4.5-110c-8.7-56.8-13.3-64.7-37.9-98c-42.6-57.6-80.3-85.9-146.8-66"/>
			<path class="st17" d="M2170.9,618.7c36,1.9,73.6-20.4,108.9-13.8c28.2,5.3,33.1,14.7,61.6,25.4c25.3,9.5,75.1,13.2,92.2,33.5
				c19.2,22.7-28,71.8-49.8,90.5c-39.5,34-106,84-152.6,38.4c-22.4-22-36.8-51.7-42.4-81.6c-5.4-28.8-18.3-62.8-15.4-92.5"/>
		</g>
		<path class="st18" d="M1531.8,912.5c20.4-20.3,41.1-16,61.8,1.9c8.9,7.7,59.4,48.4,11.8,48.5c6.7,6.7,25.9,36.2,1.2,30.3
			c13.1,7.8,9.3,28.3-7.3,19.6c8.1,2.2,17.6,13.1,14.8,22.1c-3.7,12.1-29.6,5.8-38.6,3.4c-14.6-3.9-22.8,0.4-34.6-9.6
			c-21.6-18.4-20.9-86.7-7.6-114.6"/>
		<path class="st19" d="M1657,1178.1c-11-33.3-25-72.8-37.9-101.3c-7.2-15.8-17.5-28.1-36-34.2c-20-6.6-35.8,2.1-51.1-20
			c-16.9-24.4-19.1-85.6-2.1-110.3c10.2-14.8,31.7-14.7,42.3-27.6c10-12.3,3.3-53.8,23.6-59.5c17.9-5,13.2,17.8,15.9,35.5
			c3,19.6,19.1,39.9,35.9,51.6c5.8,19.6,6.4,55.7,8,76.9c2,26,1.2,21.8,10.9,43.5c7.2,16.2,25.2,38.7,36.6,53.6
			c12.1,15.7,12.1,20.4,27.4,40.7c-23.5,17.2-53.6,33.6-74.3,52.8"/>
		<path class="st17" d="M2253.2,857.7c-38.6,21.9-80.1,18.5-131.3,28c-40.5,7.5-103.9,11.5-133.7,41.5c-29.5,29.8-38.5,45-58.7,76.7
			c-16,25.1-64.8,103-95.4,142.9c-15,19.6,36.4,44.1,44,52.9c13.3,15.4,48.4,45.2,57.9,39.4c21.2-12.9,53.7-53.1,80.8-86.2
			c7.8-9.5,3.3-10.9,12.1-19.6c7.3,23.8-6.6,49.7-12.3,75.1c-7.4,33.2,0.3,105.4,2.6,132.9c5.9,68.8,17.9,143.2-14.6,203.9
			c61.9,31,140.6,19.5,210,22.6c21.4,0.9,44.9,1,65.6,4.4c21.8,3.7,71.1,3.8,94.2,1.1c-6.9-83.8-12-158,18.2-222.9
			c28.1-60.2,44-59.2,70.4-123.1c-10.7,48.7-11.9,27.1-20.7,88.6c24.4,5.5,49.9,12.6,66.9,18.6c65.3,23,73.6,29.3,73.3,22.7
			c-0.1-1.6,3.9,15.5,15.8-33.8c20.8-86.1,22-81.7,30.8-154.6c9.6-79.2,13.7-62.5,11.2-123.6c-1.6-38.5-33-62.1-104-107.4
			c-46.5-29.7-98.8-31.5-133.5-72.9c-7.8,42.5-25.5,137.2-61.6,174.3c-26,26.7-85.8,66.5-108,96.6c-15.5,21.1,2-11.3-4.4,0.2
			c5.6-24.4-9.2-94.1-10.8-134.3c-1.8-43.2,11.4-106.1,36.9-142.4"/>
		<path class="st20" d="M2133.4,887.8c3.2,78.1-6.6,284.2,103.9,287.2c92.7,2.5,157.7-87.2,200.3-172.4
			c7.1-14.1,34.4-73.1,33.1-88.9c3.8-7-5.4-9.7-1.7-8.7c5.2,9,34.5,17.1,43.6,22.1c-30.4,105.1-91.5,183.6-87.1,284.5
			c0.8,18.3,2.7,35.7,6.4,52.5c4.6,20.4,1.8,23.6-7.4,43.6c-17.2,37.7-35.5,73-43.2,114.2c-5.9,31.9-3.2,7.5-3.7,40
			c-0.3,22.6,24.3,128.6,31.9,149.8c8.5,23.8,55.9,213.2,37.7,218.9c-37,11.6-179.6,28.8-217.7,28.6
			c-88.2-0.4-295.5,38.4-383.7,43.5c17.4-8.7,110.2-262.9,120.2-282.4s37.3-84.2,45.4-106.1c13.2-35.6,14.8-80.3,13.2-119.4
			c-1.7-40.9-12-79.2-13.7-120.1s-0.6-72.9,19.7-108.4c9-15.8,20-14.1,28-32.2c9-20.3,26-71.5,28.3-94.4c5-51.1,5.2-99.1-1.6-155.2
			c33.7-1.4,32-0.5,47.1-6.8"/>
		<g>
			<path class="st1" d="M2254.5,1319.1c21.1,13.1,58.8,22.3,101.1,35.1c26.9,8.1,49.9,9.3,77.2,13.1c25.7,3.6,20.3-15.4,30.7-48.7
				c2.1-6.8-8.6-6.8-1.7-3.1c27.9,14.9,48.7,15.7,55.4,18.6c14.9,6.5,44.7,17.1,61.3,17.9c-23,66.9-14.8,46-37.6,101.4
				c-12.4,30.2-39.7,62.7-72.9,56.5c-27-5.1-53.6-16.7-79.7-25.9c-18.5-6.5-49.3-21.2-102.1-49.3c-19.2-10.2-37.9-20.4-56.6-32.1
				c-5.1-3.2-34.3-24.4-35.6-27.9c-1.4-3.9,7.3-1.8,9.1-5.2c4.4-8.4,6.2-18.7,9.3-27.8c3.6-10.6,5.6-19.6,8.2-30.6
				c14.6-2.4,31.3,3,42,12.5"/>
			<g>
				<g>
					<path class="st21" d="M1949,1193.4c0,0,11.7,23.7-1.6,51.3c0,0,23.7-19.2,17.8-58.2C1965.2,1186.5,1954.1,1187.1,1949,1193.4"
						/>
					<g>
						<path class="st22" d="M1958.3,1184.3l4.6,14.4c0.7,2.3,3.6,3.5,6.4,2.7l20-5.8l6.2,21.2l43.8-12.7l-6.2-21.2l37.1-10.8
							c2.9-0.8,4-3.1,2.4-5l-25.8-32.7c-1.5-1.9-0.4-2.5-3.3-1.6l-92.6,25.2l-36.9,13l6.2,21.5L1958.3,1184.3"/>
						<path class="st23" d="M2051.5,1208.5c0,0-53.2,14.6-57.7,15.9c-4.5,1.3-10,5.1-6.7,16.3c6.8,23.2,6.2,39.3-0.3,53.8
							c-5.2,11.4-22.4,41.5-27.7,53.2c-5.4,12-0.9,35.4,4,52l30.8,104.6c3.3,11.2,6.9,37.9,24.9,35.1l137.7-41.1
							c11.1-3.3,17.5-15,14.3-26.1l-27.2-92.5C2115.8,1285.6,2051.5,1208.5,2051.5,1208.5L2051.5,1208.5z"/>
						<path class="st24" d="M2052.1,1297.2c0,0-28.4,7.8-30.8,8.5s-5.3,2.7-3.6,8.7c3.6,12.4,3.3,21-0.2,28.7
							c-2.8,6.1-12,22.2-14.8,28.4c-2.9,6.4-0.5,18.9,2.1,27.8l16.4,55.8c1.7,5.9,3.7,20.2,13.3,18.7l73.4-21.9
							c5.9-1.8,9.4-8,7.6-13.9l-14.5-49.3C2086.4,1338.3,2052.1,1297.2,2052.1,1297.2L2052.1,1297.2z"/>
						<path class="st25" d="M2039.1,1195.5l-46,13.2c-2.1,0.6-3.3,2.6-2.7,4.5l2.8,9.9c0.5,1.9,2.7,3,4.7,2.4l46-13.2
							c2.1-0.6,3.3-2.6,2.7-4.5l-2.8-9.9C2043.3,1196,2041.1,1194.9,2039.1,1195.5L2039.1,1195.5z"/>
					</g>
					<polygon class="st23" points="1950.7,1158 1914.3,1171.3 1920.9,1192.9 1960.2,1190.8 					"/>
				</g>
				<path class="st26" d="M2293.5,1327.1c0.8,2,1.2,0.2-5.1-3.2c-31.1-16.7-113-46.6-141.3-65.9c-28.2-19.3-64.5-54.4-104.1-51.3
					c-25.6,2-108.2,6.7-99,37.8c-0.8,9.6,1,14.3,12.7,17.4c-11.2,6.2-30,30-2,40.9c-23.5,15.4-55,26.6-18.7,39.7
					c65.9,8.6,146.3-55.1,195.1-15c53.3,43.7,60.1,55.5,116.5,94.9c14.3-29,28.9-58.8,45.6-93.7"/>
			</g>
		</g>
		<g>
			<path class="st27" d="M1548,867.3c-39.3,6.6-65.4-26.2-89.9-46.2c-15.6-12.7-26.3-9.5-44-15.1c-55.7-17.4-92.1-1-141.6,25
				c-4.6-35.6-23.1-58-3.6-96c-5.9-2.4-7.9-8.2-16.6-9.1c-7.7-35.6-2.7-101.3,40.6-99.3c-2.3-9.3-28.9-9.7-12.8-29.7
				c68.3-39.2,114.9-105,131.9-17.5c-2.8-9.5,5-38.8,4.1-50.3c27.4-16.1,123-21.3,114.7,29.8c39-14.9,22.6-31.1,56-10.8
				c21.7,13.2,58.6,41.9,72.5,62.1c-47.9,28.4-54.1,33.6-87.6,97.7c-13.5,25.8-16,73.8-7.8,104c7.6,28,9.3,47.1-26.4,61.4"/>
			
				<rect x="1670.9" y="776.1" transform="matrix(0.8567 -0.5158 0.5158 0.8567 -322.5392 1024.1843)" class="st28" width="22.5" height="633"/>
		</g>
		<path class="st29" d="M1508,862.5c-37.1-27.7-69.9-44.1-94-56.4c-14.6-7.5-14.2-6.3-31.7-8.3c-20.8-2.4-37-5.5-55.7-4.9
			c-0.8-3.4-8.4,2.5-16.8,3.1c10-2,68.3-21.7,73.3-25c-16.2,2-53.5-15.3-66.7-21.8c21.1-9,54.8-3.5,77.9-5.8
			c-19.9-7-62.8-31.4-76.7-45.5c37.1-9,61.5,26.2,91.1,38.4c-1.1-25.7-28.5-65.7-43.6-87.3c19,11.8,51.2,53.1,61.3,73.2
			c3.2-26.9-20.2-53.1-30.4-97.1c23.4,13.9,30.5,45.5,49.5,68.9c10.2,12.6,8.4,13.1,15.6,28.2c-8.8-38.2-8-67.2-9.7-101.6
			c-1.1,22.1,1.7-2.3,7.4,17.2c3.8,12.7,20.3,66.8,21.8,79.9c3.3-22.5,2-47.6,1.1-71.5c0.2,21.2,4.2,41.4,9.7,61.9
			c15.7-4.2,12-55.1,15.1-72.3c9.8,22.7,21.5,49.5,25.1,74.5c-0.9-23.7-0.2-46.2,8-66.9c1.1,24.8,3.9,51,6.2,76
			c14.3-13,8.9-38.5,28.6-50.2c-8.7,37.6-11.8,53.6-16.8,109.3c-2.1,23.2,22.6,59.4,10.5,79.2c-8.3,13.5-41.5,20.4-57.7,4.8"/>
		<path class="st19" d="M1539.1,914.3c30.9-1.5,66.5-26.2,66.3,18.6c14.9,5.7,9.5,16.9,16.9,27c6.2,8.5,18.1,7.2,20.9,20.1
			c4.4,20.3-15.1,46.5-36.6,49.9c-22.1,3.5-47.6-19.8-60-36.1c-15.2-20.2-13-55.8-9.9-79.3"/>
		
			<linearGradient id="SVGID_1_" gradientUnits="userSpaceOnUse" x1="1387.0674" y1="644.7275" x2="1949.5601" y2="644.7275" gradientTransform="matrix(0.9992 -4.117812e-02 -4.117812e-02 -0.9992 2.4915 1940.028)">
			<stop  offset="0" style="stop-color:#F9F9FD"/>
			<stop  offset="0.12" style="stop-color:#EEF5FC"/>
			<stop  offset="0.33" style="stop-color:#D2ECF9"/>
			<stop  offset="0.6" style="stop-color:#A5DCF5"/>
			<stop  offset="0.92" style="stop-color:#66C7F0"/>
			<stop  offset="1" style="stop-color:#55C2EF"/>
		</linearGradient>
		<polyline class="st30" points="1920.8,1188.3 1922.2,1175.8 1354,1047.6 1369.7,1429.8 		"/>
	</g>
</g>
</svg>
