<?xml version="1.0" encoding="UTF-8"?>
<svg xmlns="http://www.w3.org/2000/svg" xmlns:xlink="http://www.w3.org/1999/xlink" viewBox="0 0 2809.33 1800.27">
  <defs>
    <style>
      .cls-1 {
        fill: url(#linear-gradient);
        opacity: .7;
      }

      .cls-1, .cls-2, .cls-3, .cls-4, .cls-5, .cls-6, .cls-7, .cls-8, .cls-9, .cls-10, .cls-11, .cls-12, .cls-13, .cls-14, .cls-15, .cls-16, .cls-17, .cls-18, .cls-19, .cls-20, .cls-21, .cls-22, .cls-23, .cls-24 {
        stroke-width: 0px;
      }

      .cls-2 {
        fill: #f8d9cf;
        opacity: .8;
      }

      .cls-25, .cls-26, .cls-27, .cls-28, .cls-29, .cls-30, .cls-31 {
        stroke-miterlimit: 10;
      }

      .cls-25, .cls-27, .cls-18 {
        fill: #fff;
      }

      .cls-25, .cls-28 {
        stroke: #231f20;
      }

      .cls-25, .cls-31 {
        stroke-width: .5px;
      }

      .cls-26 {
        stroke: #090909;
        stroke-width: .75px;
      }

      .cls-26, .cls-29, .cls-30, .cls-31 {
        fill: none;
      }

      .cls-27, .cls-31 {
        stroke: #010101;
      }

      .cls-28 {
        fill: #f9f9fd;
      }

      .cls-29 {
        stroke: #fdf7f2;
      }

      .cls-30 {
        stroke: #fff;
      }

      .cls-3 {
        opacity: .6;
      }

      .cls-3, .cls-16 {
        fill: #a0dbea;
      }

      .cls-4 {
        fill: #f9dc62;
      }

      .cls-5 {
        fill: #281f26;
      }

      .cls-6 {
        fill: #302b2e;
      }

      .cls-7 {
        fill: #3b3535;
      }

      .cls-8 {
        fill: #3b87c8;
      }

      .cls-9 {
        fill: #3d84c5;
      }

      .cls-10 {
        fill: #408db8;
      }

      .cls-11 {
        fill: #433f3f;
      }

      .cls-12 {
        fill: #1372ba;
      }

      .cls-13 {
        fill: #11516c;
      }

      .cls-14 {
        fill: #1773ba;
      }

      .cls-15 {
        fill: #e1f1f4;
      }

      .cls-17 {
        fill: #7cd1ee;
      }

      .cls-19 {
        fill: #e93938;
      }

      .cls-20 {
        fill: #e9c923;
      }

      .cls-21 {
        fill: #fdd3b6;
      }

      .cls-22 {
        fill: #f6c7ab;
      }

      .cls-23 {
        fill: #010101;
      }

      .cls-24 {
        fill: #044b78;
      }
    </style>
    <linearGradient id="linear-gradient" x1="1355.18" y1="1206.26" x2="1917.67" y2="1206.26" gradientTransform="translate(-41.81 89.24) rotate(-2.36)" gradientUnits="userSpaceOnUse">
      <stop offset="0" stop-color="#f9f9fd"/>
      <stop offset=".12" stop-color="#eef5fc"/>
      <stop offset=".33" stop-color="#d2ecf9"/>
      <stop offset=".6" stop-color="#a5dcf5"/>
      <stop offset=".92" stop-color="#66c7f0"/>
      <stop offset="1" stop-color="#55c2ef"/>
    </linearGradient>
  </defs>
  <g id="Layer_3" data-name="Layer 3">
    <rect class="cls-28" x="-471.09" y="-397.9" width="3712.87" height="2776.39"/>
  </g>
  <g id="Layer_1" data-name="Layer 1">
    <g>
      <path class="cls-22" d="m1889.02,1111.19c-17.61,18.55-68.85,75.54-78.73,84.02-10.78,9.25-11.45,14.88-23.54,4.9-19.85-16.38-135.49-166.31-138.24-188.9-2.81-23.14,4.51-52.86-7.34-76.92-9.12-18.51-22.55-29.48-28.45-50.24-2.27-8-2.28-32.12-9.41-36.09-13.44-7.49-18.46,19.57-18.82,26.35-.89,17.03-1.22,15.57-14.24,25.03-9.4,6.84-14.04,15.35-18.03,25.9-7.62,20.14-10.08,49.97-4.12,71.03,7.19,25.36,33.73,22.47,50.41,37.22,15.11,13.36,134.64,377.8,221.95,329.92,27.77-15.23,117.23-141.93,130.13-146.05"/>
      <g>
        <g>
          <path class="cls-29" d="m2331.85,393.9c39.85-27.44,73.99-47.51,102.44-59.96"/>
          <path class="cls-22" d="m2263.67,767.85c-8.66,39.62,38.29,63.71-18.11,99.8-13.9,8.89-50.7,75.53-36.88,52.83,3.97-6.52,3.78-4.44-.73,4.44-4.55,8.95-3.72,31.87-4.27,41.64-.96,17.07,1.33,35.37,4.2,51.92,7,40.39-13.35,137.17-2.78,175.45,9.97-18.9,56.18-57.59,73.27-72.93,19.82-17.79,59.98-48.59,82.08-64.82,23.98-17.62,33.88-58.91,48.55-83.98,11.62-19.87,42.46-58.68,21.95-66.18-2.56-.94,12.18,4.65-4.76-2.96-4.32-1.94,7.18-7.71-11.53-22.83-24.83-20.06-18.22-95.08-12.5-121.22,19.37-88.55,42.99-126.95,10.55-84.2-.14-.53-.27-1.06-.41-1.59-24.54-1.03-49.45,34.58-67.82,48.97-26.99,21.14-51.26,34-85.35,35.53"/>
          <path class="cls-7" d="m2489.19,636.21c80.11,3.14,65.57,132.94-22.35,133.16-56.87.14-51.66-35.18-48.86-69.55,2.7-33.23,26.45-53.98,62.11-60.47"/>
          <path class="cls-22" d="m2301.18,381.61c18.71-3.21,0,0,0,0,0,0-5.42.64-34.84,18.33-19.89,11.96-39.75,24.01-52.66,46.36l-15.56,26.97c-4.98,8.63-4.46,20.35-7.59,29.41-3.3,9.52-5.08,19.53-7.05,29.51-2.12,10.74,2.86,21.93,1.91,32.38-.93,10.27-9.38,32.04-11.81,41.68-4.86,19.29,3.37,46.64,9.01,65.42,9.35,31.13,14.18,43.52,22.82,69.17,8.15,24.18,10.72,33.84,31.6,50.76,8.44,6.84,19.97,10.32,34.88,10.18,32.01-.31,61.67-17.55,65.53-19.58,28.58-15.01,39.3-25.7,51.86-36.32,17.39-14.7,22.06-20.21,36.14-40.52,26.16-37.75,31.87-46,31.87-46,0,0,3.22-7.38,2.65-5.43l-2.65,5.43,10.01-18.61c1.97-5.44,4.56-13.48,13.62-45.66-.19,1.88-.05.35-.19,1.88-.05,1.44-.08-3.71-.03-5.14.05-1.41-.18-2.52,0,0,.23,3.27,0,0,0,0,0,0,.06-5.77,0,0l-.06,5.77.29-2.51c-6.77-6.13-15.18-72.45-15.18-72.45-4.64-17.88-10.25-36.86-20.38-52.83-8.91-14.04-19.67-23.45-31.99-34.88-23.01-21.36-43.68-36.44-73.49-47.56-20.83-7.78-25.95-7.33-25.95-7.33-4.86-.86.49-2.1-4.86-.86-2.29.53-7.9,2.45-7.9,2.45"/>
          <path class="cls-11" d="m2301.9,541.39c9.63-2.9,16.27-3.11,26.48-5.5,12.95-3.03,21.58-3.99,30.65-4.8,8.83-.79,14.51-.99,23.97,1.21,16.03,3.72,20.81,18.2,28.08,25.55-6.76-2.07-16.46-9.99-22.97-14.02-8.68-5.38-21.66-4.56-31.15-2.55-12,2.55-24.71,7.46-36.53,9.73-4.19.8-23.92,2.13-22.01-6.44"/>
          <path class="cls-11" d="m2246.25,529.32c-10.14-8.94-58.17-37.13-62.02-16.62,11.17,1.64,22.53,8.58,32.47,13.78,8.03,4.2,21.73,13.44,30.87,13.27,5.31-3.33,3.9-6.03,1.07-8.49"/>
          <path class="cls-23" d="m2222.5,552.6c-3-1.47-5.01-1.88-7.45-4.39-1.84-1.9-4.16-6.32-4.17-8.97-.94,3.39,1.51,6.86,2.41,9.82"/>
          <path class="cls-23" d="m2226.8,551.69c-3.13-1.2-5.17-1.43-7.85-3.71-2.02-1.73-4.78-5.92-5.05-8.57-.59,3.46,2.19,6.7,3.38,9.57"/>
          <path class="cls-23" d="m2230.7,550.22c-3.23-.87-5.29-.9-8.18-2.9-2.19-1.52-5.35-5.41-5.88-8.02-.24,3.5,2.85,6.44,4.33,9.18"/>
          <path class="cls-23" d="m2233.21,552.99c-3.23-.87-3.65-2.49-6.55-4.49-2.19-1.52-5.35-5.41-5.89-8.02-.24,3.5,2.85,6.44,4.33,9.18"/>
          <path class="cls-23" d="m2220.56,552.7c-3.13-1.16-5.18-1.37-7.86-3.63-2.03-1.71-4.79-5.87-5.07-8.52-.58,3.46,2.21,6.68,3.41,9.53"/>
          <path class="cls-23" d="m2216.98,552.21c-3.11-1.22-5.15-1.47-7.79-3.78-2-1.74-4.68-5.96-4.91-8.61-.65,3.45,2.08,6.71,3.23,9.59"/>
          <path class="cls-23" d="m2214.19,550.68c-3.27-.73-5.32-.67-8.3-2.54-2.25-1.42-5.58-5.17-6.23-7.75-.09,3.51,3.13,6.31,4.73,8.98"/>
          <path class="cls-23" d="m2212.83,550.66c-3.85-.49-6.2-.14-9.86-2.09-2.77-1.47-7.06-5.7-8.13-8.82.33,4.36,4.38,7.43,6.55,10.53"/>
          <path class="cls-23" d="m2209.01,553.78c-3.77-.6-6.04-.12-9.68-2.62-2.75-1.88-7.08-7.34-8.24-11.39.49,5.67,4.54,9.62,6.77,13.63"/>
          <path class="cls-23" d="m2204.3,552.61c-3.44-.2-5.44.45-8.95-1.52-2.65-1.49-7.09-6.15-8.53-9.79,1,5.21,5.04,8.5,7.44,12.02"/>
          <path class="cls-23" d="m2198.31,552.31c-3.32-.5-5.36-.29-8.48-1.95-2.36-1.26-5.99-4.77-6.86-7.3.21,3.51,3.65,6.08,5.47,8.63"/>
          <path class="cls-27" d="m2195.78,554.49c13.36-9.05,28.86-9.65,37.43-1.5,10.68,10.14,11.27,14.86,14.64,24.25-12-1.6-13.84-.09-25.78-2.63-13.2-2.8-25.74-9.17-26.29-20.12"/>
          <path class="cls-31" d="m2247.44,576.93c-2.76-9.32-7-17.84-15.02-24.13-8.08-6.34-21.38-6.78-30.94-2.03-3.32,1.65-5.55,5.33-11.49,1.15"/>
          <path class="cls-5" d="m2188.99,551.43c4.71.88,6.04.7,10.25-1.36,2.92-1.43,6.47-1.64,9.64-2.34,9.38-2.08,17.6.26,24.87,6.09-1.48-.75-2.06-2.65-3.72-3.62-1.83-1.07-3.77-1.31-5.98-1.73-4.41-.83-8.6-1.05-12.87-.03-7.58,1.81-16.47,10.16-23.42,3.05"/>
          <path class="cls-6" d="m2222.38,548.27c-6.02-.59-17.7,4.38-22.75,6.16-5.62,1.98-10.81.81-14.1-4.06,4.48,2.83,8.43,2.07,13.25.17,5.91-2.34,9.7-3.99,16.26-2.88"/>
          <path class="cls-26" d="m2187.64,547.38c3.62,2.52,13.19-.66,16.75-2.09,6.31-2.52,13.27-1.77,19.36.1,5.76,1.77,9.66,3.43,14.23,7.58,4.4,4,7.38,9.55,9.56,15.25"/>
          <path class="cls-22" d="m2447.01,560.2c.1-38.05-5.44-77.38-29.88-108.51-15.07-19.19-37.7-35.51-58.95-47.25-21.72-12-46.65-16.87-71.21-18.35-21.98-1.33-37.88-2.24-39.25,24.47-.58,11.36,1.33,21.22,8.24,30.29,14.72,19.33,44.3,27.89,66.86,33.42,25.45,6.24,48.36,16.62,69.4,31.6,10.35,7.37,20.66,15.03,29,24.89,7.08,8.37,11.68,18.85,17.23,27.53"/>
          <g>
            <path class="cls-18" d="m2222.68,693.18c-.03,9.36,1.93,14.55,7.86,21.82,7.71,9.46,15.56,17.72,27.71,21.14,25.02,7.03,44.69-16.68,66.06-23.32,2.3-.71,7.42-1.79,6.88-4.76-8.45-.37-16.41.39-24.93-.84-13.07-1.88-25.55-4.21-38.61-2.37-8.2,1.16-16.41-.76-23.83-3.98-4.14-1.8-8.39-3.63-12.79-5.04-2.89-.92-6.6-.21-9.07-1.2"/>
            <path class="cls-19" d="m2225.56,698.46c.7,4.5,6.12,10.51,8.95,14.04,3.75,4.69,9.29,9.28,14.57,11.86,9.87,4.81,24.38,2.88,35.18.73,4.96-.99,10.36-1.48,15.24-3.62,6.41-2.81,0,0,4.48-1.96,10.68-4.67,21.64-10.07,33.53-16.62-7.45,12.99-17.53,20.37-26.46,27.12-12.01,9.08-27.74,16.87-43.41,17.37-7.43.24-24.03-1.46-33.24-10.94-8.41-8.66-12.83-22.15-14.66-33.53-.58-3.59-.73-8.6-2.72-11.63,2.79,2.94,5.45,5.87,8.87,8.45"/>
            <path class="cls-19" d="m2214.74,688.86c14.67,2.46,25.71,3.74,34.19,6.71,5.51,1.93,5.3,3.12,9.55,6.48,3.34,2.64,7.74-3.22,13.65-4.11,11.11-1.68,16.07.57,30.61,3.75,21.79,4.76,28.03,3.52,34.76,1.2-15.9,12.01-39.89,7.78-61.42,7.73-10.83-.03-24.07-2.24-33.81-5.24-10.49-3.23-19.27-4.69-26.25-15.88"/>
          </g>
          <g>
            <path class="cls-6" d="m2219.94,555.79c-2.05,2.74-2.55,5.09-1.97,8.81.48,3.09,2.61,6.46,5.15,8.54,2.26,1.85,7.58,3.24,10.57,2.86,4.23-.53,8.01-4.73,10.61-7.66-1.49-2.32-1.77-4.33-3.34-6.71-1.35-2.06-4.57-5.01-6.24-6.87-2.86-3.19-5.1-4.78-11.08-2.15"/>
            <path class="cls-18" d="m2221.57,560.64c-.91,1.71-.25,3.8,1.48,4.68,1.73.88,3.87.21,4.79-1.5.91-1.71.25-3.8-1.48-4.68-1.73-.88-3.87-.21-4.79,1.5Z"/>
            <path class="cls-18" d="m2235.26,566.8c.39-2.45,1.17-4.57-.5-6.94-.77-1.1-1.84-2.03-3.05-2.5-.44-.17-1.43-.3-1.45.38,0,.35.77,1.36.99,1.64.49.62,1.16,1.08,1.68,1.68.79.91,1.21,1.63,1.39,2.81.12.78-.04,1.57.07,2.35.04.31.12.88.55.9.34.02.57-.4.5-.7"/>
          </g>
          <path class="cls-30" d="m2278.84,403.64c26.77-16.8,30.02-22,39.7-26.3,12.14-5.39,24.17-13.93,36.51-19.93"/>
          <path class="cls-7" d="m2291.01,397.69c-4.31-3.42,47.36,33.67,54.03,41.77,15.1,18.35,24.89,32.6,32.15,41.77,16.68,21.06,38.52,62,48.83,88.09,11.4,28.83.98,54.32,11.46,83.56,5.02,14.02-6.49-1.93-.94-12.96,5.05-10.03,16.75-7.46,23.67-18.91,2.02-3.35,60.71-46.19,37.95,18.9l-1,2.87s77.33-62.19,43.07-171.31c-21.06-67.07-91.01-124.24-160.25-130.66-20.73-1.92-10.98-2.2-32.86,8.42-16.7,8.1-54.91,27.23-64.35,43.8"/>
          <path class="cls-7" d="m2282.76,393.02c-41.33,19.85-64.43,44.92-88.33,91.1,1.56-22.61,4.22-39.94,15.18-58.01,14.48-23.87,41.16-50.55,64.34-62.81,19.35-10.24,73.65-30.64,96.49-22.08,23.98,8.99-39.83,43.29-32.04,30.42,1.19-1.96,19.42-18.7-16.16,13.98"/>
          <g>
            <path class="cls-23" d="m2336.21,567.32c3.02-.59,5.9-.56,8.71-2.39,2.12-1.38,4.33-5.02,5.05-7.73-.09,3.75-3.16,6.55-4.74,9.3"/>
            <path class="cls-23" d="m2333.84,565.67c2.9-.4,5.68-.27,8.34-1.77,2.01-1.13,4.02-4.25,4.63-6.62.04,3.3-2.84,5.65-4.28,8.02"/>
            <path class="cls-23" d="m2329.63,566c2.94-.43,5.79-.33,8.44-1.83,2-1.14,3.92-4.23,4.44-6.56.18,3.25-2.66,5.59-4.04,7.93"/>
            <path class="cls-23" d="m2326.53,567.01c2.99-.68,5.98-.88,8.48-2.51,1.89-1.24,3.36-4.25,3.5-6.44.74,2.95-1.82,5.37-2.84,7.65"/>
            <path class="cls-23" d="m2345.14,568.95c3.05-.33,5.93-.06,8.85-1.64,2.21-1.19,4.65-4.63,5.54-7.28-.33,3.73-3.58,6.26-5.34,8.87"/>
            <path class="cls-23" d="m2349.24,568.33c3.07-.02,5.91.53,8.95-.75,2.29-.97,4.99-4.15,6.08-6.69-.61,3.68-4.05,5.88-6,8.3"/>
            <path class="cls-23" d="m2338.94,568.86c3.02-.59,4.89-.39,7.7-2.22,2.12-1.38,5.34-5.19,6.06-7.9-.09,3.75-3.16,6.55-4.74,9.3"/>
            <path class="cls-23" d="m2353.72,570.02c3.07.06,4.88.64,7.94-.56,2.31-.91,6.09-3.98,7.23-6.49-.69,3.66-4.16,5.77-6.16,8.14"/>
            <path class="cls-23" d="m2357.08,573.37c3.07.06,4.88.64,7.94-.56,2.31-.91,6.09-3.98,7.23-6.49-.56,3-5.14,6.93-6.16,8.14"/>
            <path class="cls-23" d="m2359.64,574.53c3.34.53,5.12,1.49,8.9.54,2.86-.71,8.08-3.73,10.22-6.51-2.05,4.18-6.6,6.13-9.63,8.6"/>
            <path class="cls-23" d="m2364.05,575.71c3.63.83,5.61,2,9.62,1.29,3.04-.54,8.49-3.36,10.63-6.16-1.96,4.32-7.59,7.1-10.71,9.51"/>
            <path class="cls-23" d="m2368.87,578.43c3.26.63,5.02,1.62,8.66.83,2.76-.59,7.75-3.34,9.76-5.95-1.88,3.98-7.04,6.7-9.92,8.99"/>
            <path class="cls-23" d="m2373.54,580.97c3.26.63,5.02,1.62,8.66.83,2.76-.59,7.75-3.34,9.76-5.95-1.88,3.98-8.43,6.3-11.31,8.59"/>
            <path class="cls-23" d="m2341.76,568.58c3.05-.33,4.91.02,7.83-1.56,2.21-1.19,5.67-4.72,6.56-7.37-.33,3.73-3.58,6.26-5.34,8.87"/>
            <path class="cls-27" d="m2309.34,584.81c2.68-15.04,22.71-21.07,33.72-18.59,6.04,1.36,13.03,4.08,18.41,7.64,5.29,3.5,10.36,8,16.39,10.37-3.27,2.12-7.79,4.17-14.86,6.09-1.74.47-9.9,3.57-20.53,2.25-16.64-2.07-26.61-5.04-33.13-7.76"/>
            <path class="cls-5" d="m2338.31,565.59c.47-.96,10.34-1.52,14.02.03,3.99,1.67,7.95,3.13,11.13,6.3,6.92,6.88,13.68,9.97,22.9,9.77-2.1.62-3.7,2.45-5.81,2.74-1.94.26-3.94-.62-5.67-1.64-3.75-2.21-7.8-5.3-11.27-8.01-3.53-2.76-7.5-4.28-11.56-5.98-4.03-1.69-9.9-3.71-13.75-3.2,1.05.2,4.33,1.97,4.75.63"/>
            <path class="cls-5" d="m2344.16,564.57c3.38,1.42,6.87,2.73,9.92,4.8,2.77,1.88,5.1,4.54,7.75,6.56,2.84,2.17,5.72,4.71,8.85,6.36,2.9,1.53,8.62,3.15,11.49,1.87-3.16-1.24-5.87-1.99-8.82-4.06-2.94-2.07-5.99-4.78-8.93-6.75-3.21-2.14-6.35-3.63-9.96-5.15-3.86-1.63-7.87-1.57-11.68-2.9"/>
            <path class="cls-26" d="m2308.99,575.31c12.71-14.38,27.28-16.87,40.54-14.42,6.84,1.26,14.51,4.66,20.44,8.24,6.51,3.92,15.35,8.91,23.18,6.09"/>
            <g>
              <path class="cls-25" d="m2331.2,575.11c-2.19,5.92,1.6,12.6,8.46,14.9,6.86,2.31,14.25.56,16.98-5.16,4.23-8.88-2.2-13.99-9.06-16.29-6.86-2.31-14.19.63-16.38,6.55Z"/>
              <path class="cls-7" d="m2332.63,574.77c-2.34,6.33,1.3,13.32,8.13,15.62,6.83,2.3,14.26-.97,16.59-7.3,2.34-6.33-1.3-13.32-8.13-15.62-6.83-2.3-14.26.97-16.59,7.3Z"/>
              <path class="cls-18" d="m2353.37,579.71c-.66,1.49-2.43,2.18-3.96,1.53-1.53-.65-2.23-2.38-1.57-3.88.66-1.49,2.43-2.18,3.96-1.53,1.53.65,2.23,2.38,1.57,3.88Z"/>
              <path class="cls-18" d="m2339.47,570.53c1.89-1,3.4-2.22,5.81-1.59,1.12.29,2.18.87,2.9,1.68.26.29.65,1.04.1,1.24-.29.11-1.33-.21-1.62-.31-.64-.21-1.21-.6-1.85-.84-.97-.36-1.67-.49-2.69-.29-.67.13-1.27.48-1.94.62-.27.05-.75.16-.89-.18-.11-.26.17-.56.43-.59"/>
            </g>
          </g>
          <path class="cls-22" d="m2446.49,637.83c-.13-16.15,20.15-46.21,38.77-47.16,19.24-.98,21.42,33.95,17.08,48.25-5.47,18.02-23.08,16.94-36.65,39.37-9.38,15.5-31.66-2.92-34.72-19.09-2.53-12.33,1.92.35,5.91-10.84,3.45-9.67,7.42-.28,9.61-10.54"/>
          <g>
            <path class="cls-2" d="m2269.46,565.15c2.98,10.29,1.14,20.37-1.41,31.13-2.44,10.29-11.23,20.73-17.4,29.81-5.96,8.78-12.09,13.14-14.29,22.91-3.25,14.39,11.61,15.29,24.67,18.44,4.29,1.03,10.23,3.34,12.79,4.37-6.31,1.24-10.33-2.49-15.72-3.93-5.65-1.52-13.3-.33-18.73-2.6-11.48-4.81-11.5-15.99-5.7-24.25,12.71-18.12,28.28-32.62,33.49-52.34,2.03-7.67,2.56-16.92,2.23-24.83"/>
            <path class="cls-2" d="m2293.92,638.07c2.52,9.6,9.68,25.71-5.32,27.4-11.34,1.28-18.69-15.84-31.22-6.09,10.3.14,20.06,7.74,30.13,8.88,15.34,1.74,14.38-15.33,9.22-25.12"/>
          </g>
        </g>
        <path class="cls-8" d="m2239.7,387.43c16.05-21.85,31.98-31.48,53.49-40.28,24-9.82,56.44-14.66,84.19-11.99,34,3.27,64.8,14.89,92.51,34.32,33.19,23.27,58.46,51.61,95.66,63.34-55.41,28.63-12.64,97.13-42.71,142.11-12.82,19.19-31.08,19.92-47.13,38.21-15,17.09-27.06,29.65-42.53,48.11-3.2-27.67-.59-84.22-4.53-109.98-8.7-56.84-13.29-64.74-37.93-98.01-42.62-57.57-80.27-85.89-146.78-65.99"/>
        <path class="cls-15" d="m2170.92,618.69c35.99,1.86,73.57-20.41,108.86-13.79,28.21,5.29,33.1,14.71,61.58,25.4,25.31,9.49,75.05,13.21,92.18,33.46,19.21,22.71-28.02,71.76-49.82,90.53-39.47,33.98-106.02,84.05-152.61,38.36-22.43-21.99-36.76-51.65-42.42-81.56-5.44-28.76-18.27-62.79-15.45-92.5"/>
      </g>
      <path class="cls-21" d="m1531.81,912.54c20.41-20.27,41.09-16.04,61.76,1.89,8.92,7.73,59.38,48.36,11.85,48.45,6.66,6.65,25.92,36.18,1.25,30.35,13.07,7.76,9.32,28.32-7.26,19.57,8.12,2.19,17.63,13.06,14.85,22.12-3.7,12.09-29.55,5.84-38.6,3.4-14.62-3.94-22.83.38-34.59-9.61-21.62-18.37-20.95-86.67-7.59-114.63"/>
      <path class="cls-4" d="m1656.99,1178.09c-11.02-33.32-24.96-72.78-37.94-101.34-7.17-15.78-17.51-28.07-35.99-34.15-20.04-6.59-35.77,2.07-51.07-20.02-16.88-24.38-19.08-85.59-2.12-110.32,10.17-14.84,31.7-14.66,42.26-27.63,9.99-12.26,3.3-53.81,23.55-59.51,17.87-5.03,13.24,17.76,15.94,35.53,2.98,19.61,19.12,39.91,35.89,51.59,5.79,19.58,6.37,55.74,7.99,76.86,1.99,26,1.19,21.78,10.9,43.51,7.23,16.16,25.21,38.74,36.63,53.56,12.07,15.66,12.1,20.4,27.4,40.68-23.52,17.21-53.55,33.6-74.33,52.79"/>
      <path class="cls-15" d="m2253.19,857.68c-38.58,21.86-80.05,18.45-131.28,27.99-40.52,7.54-103.92,11.49-133.66,41.48-29.5,29.75-38.5,44.98-58.71,76.66-16,25.07-64.84,103.02-95.36,142.86-14.97,19.55,36.42,44.12,43.98,52.86,13.3,15.36,48.36,45.25,57.9,39.42,21.18-12.93,53.68-53.1,80.77-86.24,7.77-9.5,3.32-10.88,12.11-19.58,7.32,23.78-6.6,49.69-12.27,75.13-7.41,33.23.28,105.44,2.63,132.88,5.88,68.82,17.89,143.2-14.63,203.95,61.85,31.02,140.57,19.53,210.02,22.58,21.36.94,44.94.97,65.55,4.43,21.8,3.66,71.08,3.78,94.16,1.08-6.89-83.75-12-157.98,18.25-222.88,28.09-60.25,43.99-59.2,70.36-123.11-10.7,48.65-11.95,27.09-20.68,88.55,24.39,5.52,49.94,12.63,66.85,18.6,65.26,23.04,73.56,29.29,73.29,22.71-.07-1.61,3.89,15.48,15.8-33.79,20.8-86.06,21.96-81.68,30.8-154.58,9.6-79.18,13.69-62.49,11.17-123.57-1.59-38.52-32.98-62.11-103.98-107.42-46.51-29.68-98.82-31.49-133.52-72.87-7.78,42.54-25.53,137.22-61.62,174.26-25.98,26.67-85.79,66.49-107.96,96.63-15.51,21.08,2-11.27-4.38.18,5.58-24.37-9.17-94.09-10.83-134.3-1.78-43.24,11.35-106.1,36.91-142.35"/>
      <path class="cls-9" d="m2133.44,887.85c3.22,78.11-6.55,284.22,103.88,287.25,92.67,2.54,157.69-87.22,200.27-172.38,7.05-14.1,34.39-73.13,33.06-88.91,3.77-7-5.4-9.74-1.66-8.73,5.22,9.05,34.51,17.12,43.58,22.11-30.35,105.06-91.47,183.55-87.06,284.46.8,18.35,2.66,35.67,6.43,52.53,4.57,20.45,1.8,23.6-7.35,43.64-17.23,37.73-35.54,72.99-43.16,114.15-5.9,31.86-3.22,7.53-3.68,39.99-.32,22.58,24.28,128.57,31.89,149.83,8.51,23.78,55.92,213.2,37.69,218.89-36.99,11.55-179.58,28.83-217.68,28.63-88.25-.45-295.48,38.43-383.68,43.46,17.41-8.68,110.16-262.89,120.25-282.37s37.32-84.24,45.4-106.06c13.18-35.62,14.81-80.26,13.19-119.39-1.68-40.86-12.04-79.22-13.72-120.09s-.64-72.9,19.68-108.42c9.03-15.79,19.98-14.09,27.99-32.22,8.98-20.34,26.01-71.46,28.27-94.43,5.04-51.13,5.18-99.07-1.65-155.23,33.71-1.39,32-.47,47.1-6.75"/>
      <g>
        <path class="cls-22" d="m2254.5,1319.09c21.07,13.07,58.8,22.33,101.13,35.05,26.86,8.08,49.94,9.28,77.19,13.08,25.7,3.59,20.31-15.38,30.68-48.7,2.11-6.78-8.57-6.8-1.74-3.14,27.95,14.93,48.72,15.7,55.44,18.62,14.9,6.48,44.7,17.07,61.34,17.94-22.97,66.87-14.81,46-37.64,101.43-12.45,30.22-39.7,62.72-72.92,56.5-26.98-5.05-53.65-16.69-79.67-25.86-18.51-6.52-49.34-21.16-102.07-49.34-19.18-10.25-37.87-20.43-56.56-32.11-5.07-3.17-34.34-24.41-35.6-27.93-1.4-3.92,7.33-1.81,9.08-5.17,4.37-8.37,6.2-18.67,9.3-27.79,3.6-10.59,5.62-19.61,8.23-30.61,14.61-2.44,31.3,2.96,42.04,12.5"/>
        <g>
          <g>
            <path class="cls-12" d="m1948.98,1193.43s11.73,23.69-1.55,51.26c0,0,23.72-19.17,17.78-58.21,0,0-11.15.62-16.24,6.95"/>
            <g>
              <path class="cls-16" d="m1958.35,1184.29l4.56,14.37c.67,2.3,3.55,3.5,6.41,2.66l19.98-5.81,6.17,21.24,43.81-12.73-6.17-21.23,37.1-10.78c2.87-.83,3.97-3.09,2.45-5.01l-25.75-32.66c-1.52-1.92-.39-2.46-3.26-1.63l-92.59,25.17-36.91,12.99,6.25,21.51,37.95-8.09"/>
              <path class="cls-24" d="m2051.46,1208.52s-53.18,14.63-57.66,15.94c-4.49,1.31-10.01,5.11-6.72,16.33,6.82,23.24,6.24,39.34-.35,53.8-5.17,11.36-22.43,41.52-27.69,53.2-5.4,11.98-.91,35.41,3.97,52.04l30.75,104.58c3.27,11.15,6.95,37.89,24.91,35.09l137.7-41.07c11.14-3.28,17.53-14.97,14.26-26.13l-27.16-92.53c-27.64-94.16-92.01-171.23-92.01-171.23Z"/>
              <path class="cls-3" d="m2052.1,1297.24s-28.36,7.8-30.75,8.5c-2.39.7-5.34,2.73-3.58,8.71,3.64,12.39,3.33,20.98-.18,28.69-2.76,6.06-11.96,22.15-14.77,28.37-2.88,6.39-.48,18.88,2.12,27.75l16.4,55.78c1.74,5.95,3.71,20.21,13.29,18.71l73.44-21.9c5.94-1.75,9.35-7.99,7.6-13.94l-14.49-49.35c-14.74-50.22-49.07-91.33-49.07-91.33Z"/>
              <path class="cls-14" d="m2039.07,1195.51l-45.97,13.21c-2.05.59-3.29,2.62-2.74,4.52l2.84,9.87c.54,1.89,2.67,2.97,4.73,2.37l45.96-13.21c2.06-.6,3.29-2.62,2.74-4.52l-2.83-9.88c-.54-1.89-2.67-2.95-4.72-2.37Z"/>
            </g>
            <polygon class="cls-24" points="1950.71 1157.99 1914.27 1171.28 1920.92 1192.91 1960.25 1190.81 1950.71 1157.99"/>
          </g>
          <path class="cls-20" d="m2293.47,1327.12c.76,2.03,1.18.22-5.1-3.16-31.1-16.73-113.03-46.57-141.31-65.92-28.2-19.29-64.5-54.4-104.12-51.33-25.63,1.99-108.16,6.68-99.01,37.76-.82,9.58.96,14.26,12.69,17.39-11.24,6.23-30.02,30.03-2.03,40.9-23.48,15.37-55.01,26.63-18.68,39.66,65.94,8.59,146.27-55.14,195.13-15.02,53.26,43.73,60.06,55.52,116.46,94.89,14.31-29.02,28.95-58.77,45.63-93.69"/>
        </g>
      </g>
      <g>
        <path class="cls-17" d="m1547.96,867.33c-39.27,6.64-65.45-26.24-89.92-46.2-15.58-12.71-26.26-9.53-44.04-15.07-55.71-17.36-92.08-.96-141.6,24.95-4.55-35.62-23.05-58.03-3.64-96.04-5.86-2.44-7.94-8.17-16.56-9.11-7.68-35.6-2.69-101.28,40.58-99.3-2.29-9.28-28.88-9.71-12.82-29.66,68.34-39.24,114.95-104.97,131.94-17.49-2.8-9.53,4.97-38.84,4.1-50.35,27.4-16.14,123.04-21.31,114.67,29.78,38.96-14.87,22.61-31.06,56.02-10.75,21.68,13.18,58.62,41.9,72.51,62.14-47.88,28.4-54.1,33.58-87.64,97.68-13.51,25.83-16,73.84-7.78,104.04,7.6,27.95,9.34,47.12-26.42,61.39"/>
        <rect class="cls-13" x="1670.91" y="776.08" width="22.49" height="632.97" transform="translate(-322.51 1024.24) rotate(-31.05)"/>
      </g>
      <path class="cls-10" d="m1507.99,862.49c-37.07-27.67-69.95-44.06-93.98-56.43-14.64-7.54-14.17-6.31-31.7-8.34-20.82-2.41-36.99-5.45-55.68-4.94-.81-3.39-8.38,2.54-16.76,3.1,9.96-2.03,68.26-21.68,73.32-25.01-16.23,1.99-53.47-15.35-66.66-21.78,21.11-9.04,54.85-3.55,77.94-5.8-19.9-6.96-62.76-31.4-76.72-45.51,37.11-8.98,61.54,26.24,91.09,38.39-1.12-25.72-28.53-65.74-43.6-87.26,18.98,11.85,51.22,53.13,61.27,73.19,3.25-26.94-20.15-53.06-30.37-97.13,23.4,13.92,30.49,45.48,49.46,68.91,10.17,12.56,8.36,13.07,15.61,28.23-8.81-38.23-8.02-67.22-9.69-101.62-1.09,22.06,1.68-2.33,7.44,17.19,3.75,12.69,20.29,66.82,21.75,79.87,3.34-22.55,2.03-47.58,1.05-71.51.15,21.25,4.21,41.44,9.68,61.89,15.67-4.24,11.99-55.1,15.06-72.28,9.78,22.66,21.5,49.46,25.06,74.53-.9-23.71-.25-46.25,7.97-66.87,1.05,24.85,3.94,51.02,6.21,75.99,14.33-13.02,8.94-38.5,28.64-50.16-8.68,37.61-11.83,53.62-16.78,109.3-2.06,23.25,22.61,59.42,10.5,79.17-8.3,13.54-41.51,20.36-57.69,4.79"/>
      <path class="cls-4" d="m1539.06,914.28c30.88-1.49,66.5-26.2,66.31,18.56,14.92,5.72,9.47,16.88,16.86,26.98,6.24,8.52,18.11,7.25,20.89,20.07,4.41,20.33-15.06,46.53-36.58,49.94-22.08,3.5-47.62-19.76-59.97-36.13-15.21-20.15-12.99-55.81-9.9-79.31"/>
      <polyline class="cls-1" points="1920.81 1188.3 1922.21 1175.79 1353.98 1047.62 1369.71 1429.84"/>
    </g>
  </g>
</svg>