<?xml version="1.0" encoding="UTF-8"?>
<svg id="Layer_1" data-name="Layer 1" xmlns="http://www.w3.org/2000/svg" viewBox="0 0 1431.83 300">
  <defs>
    <style>
      .cls-1 {
        letter-spacing: -.05em;
      }

      .cls-2 {
        letter-spacing: .05em;
      }

      .cls-3 {
        letter-spacing: 0em;
      }

      .cls-4 {
        fill: none;
        stroke: #9dc8eb;
        stroke-miterlimit: 10;
        stroke-width: 6px;
      }

      .cls-5 {
        fill: #4d73a0;
        font-family: AcuminConcept-Italic, 'Acumin Variable Concept';
        font-size: 242px;
        font-style: italic;
        font-variation-settings: 'wght' 400, 'wdth' 100, 'slnt' 12;
      }

      .cls-6 {
        letter-spacing: -.02em;
      }

      .cls-7 {
        letter-spacing: 0em;
      }

      .cls-8 {
        fill-rule: evenodd;
      }

      .cls-8, .cls-9 {
        fill: #344154;
      }

      .cls-8, .cls-9, .cls-10 {
        stroke-width: 0px;
      }

      .cls-11 {
        letter-spacing: .01em;
      }

      .cls-10 {
        fill: #9dc8eb;
      }
    </style>
  </defs>
  <g>
    <polygon class="cls-8" points="1080.53 61.37 1087.58 61.36 1087.86 238.58 1080.82 238.59 1080.84 252.78 1058.28 252.81 1057.96 47.22 1080.51 47.19 1080.53 61.37"/>
    <path class="cls-8" d="m1073.49,47.2h-6.38s-4.88.02-4.88.02h0s11.27-.02,11.27-.02h0Zm12.12,14.17h6.24s.28,177.21.28,177.21h-4.27s-.28-177.21-.28-177.21h-1.97s0,0,0,0Z"/>
    <polygon class="cls-8" points="1102.3 177.29 1094.06 182.78 1093.94 117.13 1102.2 122.59 1102.3 177.29"/>
    <path class="cls-8" d="m1350.46,141.94c.98-2.81,3.66-4.85,6.8-4.86l41.8-.08c3.97,0,7.22,3.23,7.23,7.2l.02,10.37c0,3.97-3.23,7.22-7.2,7.23l-41.8.08c-3.21,0-5.95-2.11-6.88-5.02l-248.16.54-.03-14.91,248.22-.54Z"/>
    <rect class="cls-9" x="1080.69" y="99.67" width="1.21" height="138.92" transform="translate(-.31 2) rotate(-.11)"/>
  </g>
  <polygon class="cls-10" points="1054.4 55.58 98.49 51.08 1054.4 46.58 1054.4 55.58 1054.4 55.58"/>
  <polygon class="cls-10" points="1054.48 253.13 98.56 248.63 1054.48 244.13 1054.48 253.13 1054.48 253.13"/>
  <line class="cls-4" x1="1051.43" y1="47.24" x2="1051.43" y2="252.88"/>
  <polygon class="cls-10" points="1051.43 243.08 416.44 238.58 1051.43 234.08 1051.43 243.08 1051.43 243.08"/>
  <polygon class="cls-10" points="165.59 87.7 43.25 85.7 165.59 83.7 165.59 87.7 165.59 87.7"/>
  <polygon class="cls-10" points="151.96 207.58 45.01 205.58 151.96 203.58 151.96 207.58 151.96 207.58"/>
  <polygon class="cls-10" points="183.98 139.29 24.86 137.29 183.98 135.29 183.98 139.29 183.98 139.29"/>
  <text class="cls-5" transform="translate(120.39 228.59)"><tspan class="cls-6" x="0" y="0">K</tspan><tspan class="cls-1" x="141.09" y="0">O</tspan><tspan class="cls-2" x="305.65" y="0">T</tspan><tspan class="cls-7" x="446.25" y="0">TI</tspan><tspan class="cls-11" x="643.23" y="0">E</tspan><tspan class="cls-3" x="784.07" y="0">S</tspan></text>
</svg>