<?xml version="1.0" encoding="UTF-8"?>
<svg xmlns="http://www.w3.org/2000/svg" viewBox="0 0 226.25 425.2">
  <defs>
    <style>
      .cls-1 {
        fill: #d0d0d0;
        mix-blend-mode: multiply;
      }

      .cls-1, .cls-2, .cls-3, .cls-4, .cls-5, .cls-6, .cls-7 {
        stroke-width: 0px;
      }

      .cls-8 {
        isolation: isolate;
      }

      .cls-3 {
        fill: #d1d1d1;
      }

      .cls-4 {
        fill: #bebebe;
      }

      .cls-5 {
        fill: #c2c2c2;
      }

      .cls-6 {
        fill: #fff;
      }

      .cls-7 {
        fill: #e6e6e6;
      }
    </style>
  </defs>
  <g class="cls-8">
    <g id="Capa_1" data-name="Capa 1">
      <g>
        <g>
          <path class="cls-3" d="m210.98,377.3c-3.53-1.35-9.02-.12-12.62-1.76,3.25-2.2,7.2-3.57,6.05-8.56-1.48-6.45-9.7-4.85-14.2-3.54-8.64,2.52-16.14,1.1-24.53-1.47-9.09-2.79-17.89-3.92-27.39-4.04-9.5-.13-19.02-.75-28.5.09-9.65.85-19.11,3.21-28.52,5.41-7.94,1.86-15.72,2.73-23.79,3.53-3.71.37-8.32.95-11.26,3.45-4.43-.45-8.92-.93-13.18-.03-3.62.76-8.17,2.32-10.34,5.54-2.11,3.13-1.57,7.48,2.08,9.14,2.78,1.26,6.22.15,9.17.45-1,.61-2.22,1.09-2.88,1.43-1.95,1.01-3.94,1.92-5.63,3.34-4.56,3.81,2.52,6.7,5.38,7.41,4.25,1.07,8.67.68,12.99.38,5.33-.38,10.04-.05,15.08,1.85,7.22,2.73,14.46,9.99,22.64,8.77,3.19-.47,6.11-1.83,9.13-2.9,4.66-1.64,8.62-.9,13.37-.1,9.18,1.55,18.28,1.7,27.38-.46,10.06-2.39,20.22-4.23,30.24-6.82,9.23-2.38,18.48-6.8,28.23-6.05,4.78.37,9.55.76,14.35.42,4.12-.3,9.34-1.15,11.55-5.11,2.37-4.26-.81-8.83-4.8-10.36Z"/>
          <path class="cls-2" d="m33.1,389.76c-.73,3.87,3.57,5.16,6.65,4.92,1.3-.1,1.31-2.14,0-2.04-1.46.11-5.11-.08-4.69-2.34.24-1.29-1.72-1.84-1.97-.54h0Z"/>
          <path class="cls-2" d="m43.34,395.1c1.29.26,2.58.48,3.9.49,1.32.01,1.32-2.03,0-2.04-1.14-.01-2.24-.2-3.36-.42-1.29-.26-1.83,1.71-.54,1.97h0Z"/>
          <path class="cls-2" d="m194.25,366.52c1.7-.71,4.63-1.4,5.88.44.73,1.08,2.5.06,1.76-1.03-1.82-2.68-5.49-2.51-8.18-1.38-1.19.5-.67,2.48.54,1.97h0Z"/>
          <path class="cls-2" d="m200.22,369.17c0,.61-.01,1.18-.19,1.77-.38,1.26,1.59,1.8,1.97.54.23-.75.26-1.53.26-2.31,0-1.32-2.04-1.32-2.04,0h0Z"/>
          <path class="cls-2" d="m112.97,404.4c3.01.83,5.94.5,8.93-.23,1.28-.31.74-2.28-.54-1.97-2.65.64-5.18.97-7.85.23-1.27-.35-1.81,1.62-.54,1.97h0Z"/>
          <path class="cls-2" d="m126.17,404.21c1.21-.01,2.41-.21,3.63-.23,1.32-.01,1.32-2.06,0-2.04-1.21.01-2.42.21-3.63.23-1.32.02-1.32,2.06,0,2.04h0Z"/>
          <path class="cls-2" d="m150.66,391.51c5.01-.05,9.98-.66,14.97-1.13,1.3-.12,1.31-2.17,0-2.04-4.99.47-9.96,1.08-14.97,1.13-1.32.01-1.32,2.05,0,2.04h0Z"/>
          <path class="cls-2" d="m172.71,389.43c1.36-.23,2.72-.45,4.08-.68,1.3-.21.74-2.18-.54-1.97-1.36.23-2.72.45-4.08.68-1.3.22-.74,2.18.54,1.97h0Z"/>
          <path class="cls-2" d="m184.23,388.56h1.13c1.32,0,1.32-2.04,0-2.04h-1.13c-1.32,0-1.32,2.04,0,2.04h0Z"/>
          <path class="cls-2" d="m69.2,394.61c8.09,7.57,18.66.13,27.89,3.44,1.24.44,1.77-1.53.54-1.97-8.69-3.11-19.57,4.04-26.99-2.91-.96-.9-2.41.54-1.44,1.44h0Z"/>
          <path class="cls-2" d="m100.54,398.54h1.36c1.32,0,1.32-2.04,0-2.04h-1.36c-1.32,0-1.32,2.04,0,2.04h0Z"/>
          <path class="cls-2" d="m27.34,380.53c-1.16-.58-1.03-2.31-.25-3.16.89-.97-.55-2.42-1.44-1.44-1.61,1.76-1.73,5.18.66,6.37,1.18.58,2.21-1.18,1.03-1.76h0Z"/>
          <path class="cls-2" d="m30.97,374.36c.76-.49,1.61-.8,2.48-1.03,1.27-.33.73-2.3-.54-1.97-1.03.27-2.07.66-2.96,1.24-1.1.71-.08,2.48,1.03,1.76h0Z"/>
          <path class="cls-2" d="m40.81,375.7c-1.07,3.66,1.08,4.63,3.87,6.28,1.37.81,1.7,2.6,2.24,3.96.41,1.04,1.08,1.79,1.87,2.55,1.5,1.44,3.95,2.02,5.89,2.53,1.28.33,1.82-1.64.54-1.97-2.27-.59-4.59-1.19-6.06-3.19-.91-1.24-1.11-2.97-1.98-4.27-1.46-2.19-5.38-2-4.4-5.34.37-1.27-1.6-1.8-1.97-.54h0Z"/>
          <path class="cls-2" d="m184.62,379.35c1.48.85,3.2,1.27,4.87.78,1.26-.37.72-2.33-.54-1.97-1.15.33-2.28,0-3.29-.58-1.14-.66-2.17,1.11-1.03,1.76h0Z"/>
          <path class="cls-2" d="m193.75,379.94c1.32,0,1.32-2.04,0-2.04s-1.32,2.04,0,2.04h0Z"/>
          <path class="cls-2" d="m199.65,389.92h5.44c1.32,0,1.32-2.04,0-2.04h-5.44c-1.32,0-1.32,2.04,0,2.04h0Z"/>
          <path class="cls-2" d="m209.67,389.17c2.11-1.65,3.48-4.08,2.2-6.68-.58-1.18-2.34-.15-1.76,1.03.85,1.72-.61,3.21-1.88,4.21-1.04.81.42,2.24,1.44,1.44h0Z"/>
        </g>
        <g>
          <g>
            <path class="cls-5" d="m82.51,273.71c-4.38,0-7.94-3.56-7.94-7.94V54.27c0-4.38,3.56-7.94,7.94-7.94s7.94,3.56,7.94,7.94v211.5c0,4.38-3.56,7.94-7.94,7.94Z"/>
            <path class="cls-2" d="m82.51,47.69c3.63,0,6.58,2.95,6.58,6.58v211.5c0,3.63-2.95,6.58-6.58,6.58s-6.58-2.95-6.58-6.58V54.27c0-3.63,2.95-6.58,6.58-6.58m0-2.72c-5.13,0-9.3,4.17-9.3,9.3v211.5c0,5.13,4.17,9.3,9.3,9.3s9.3-4.17,9.3-9.3V54.27c0-5.13-4.17-9.3-9.3-9.3h0Z"/>
          </g>
          <path class="cls-1" d="m82.26,226.88c-.91-10.44-.83-20.84-1.13-31.3-.29-10-.85-20-1.25-30-1.21-30.26,1.47-90.04,6.05-119.94-1.06-.42-2.21-.66-3.42-.66-5.13,0-9.3,4.17-9.3,9.3v211.5c0,5.13,4.17,9.3,9.3,9.3,2.51,0,4.78-1,6.45-2.62-2.74-15.12-5.36-30.27-6.7-45.57Z"/>
          <g>
            <path class="cls-4" d="m82.51,273.71c-4.38,0-7.94-3.56-7.94-7.94v-20.64h15.88v20.64c0,4.38-3.56,7.94-7.94,7.94Z"/>
            <path class="cls-2" d="m89.08,246.49v19.28c0,3.63-2.95,6.58-6.58,6.58s-6.58-2.95-6.58-6.58v-19.28h13.16m2.72-2.72h-18.6v22c0,5.13,4.17,9.3,9.3,9.3s9.3-4.17,9.3-9.3v-22h0Z"/>
          </g>
          <path class="cls-1" d="m82.73,257.04c-3.18.55-6.35.6-9.53.55v8.18c0,5.13,4.17,9.3,9.3,9.3s9.3-4.17,9.3-9.3v-12.3c-2.74,1.76-5.77,3-9.07,3.57Z"/>
          <g>
            <path class="cls-7" d="m119.73,395.73c-.33,0-.67,0-1.01-.02-4.91-.41-9.04-2.16-13.03-3.87-3.18-1.35-6.17-2.63-9.36-3.18-1.28-.25-2.61-.38-4.1-.38-2.25,0-4.64.28-6.94.54-2.32.27-4.95.57-7.51.57-.49,0-.99-.01-1.48-.04-8.04-.35-15.69-3.72-22.09-9.75-10.74-9.79-14.81-25.44-11.15-42.93,1.92-9.35,7.06-16.87,12.03-24.15,2.28-3.33,4.63-6.78,6.62-10.34,3.73-6.63,5.92-12.13,6.7-16.81.55-4.68.65-10.11.3-16.08l-.09-1.47c-.02-.38.12-.75.38-1.02.26-.27.61-.42.98-.42,0,0,20.31.39,20.31.39.69.01,1.26.54,1.33,1.23l.11,1.21c.85,9.14,4.54,14.75,8.41,19.45,3.34,3.94,7.7,6.62,12.32,9.45,4.9,3,9.96,6.11,14.11,10.98,7.19,8.27,9.29,17.65,10.96,27.34l.19,1.13c1.23,7.45,3.29,19.93,9.27,23.74,6.08,3.83,16.1,8.3,24.32,8.3,2.04,0,3.82-.29,5.28-.86l3.27-1.28c.16-.06.33-.09.5-.09.37,0,.74.15,1,.44.38.41.47,1.02.22,1.52l-1.56,3.15c-3.58,7.25-13.72,8.68-23.53,10.07-6.36.9-12.94,1.83-16.39,4.29-.78.54-1.5,1.04-2.21,1.54-5.37,3.77-10.45,7.33-18.17,7.33Z"/>
            <path class="cls-2" d="m69.98,267.75l20.29.39.11,1.21c.88,9.51,4.71,15.32,8.71,20.18,3.49,4.12,7.94,6.85,12.66,9.74,4.81,2.95,9.78,6,13.79,10.7,6.97,8.02,9.02,17.2,10.65,26.69l.19,1.12c1.27,7.68,3.38,20.53,9.88,24.67,6.24,3.93,16.54,8.51,25.05,8.51h0c2.21,0,4.15-.32,5.77-.96l3.27-1.28-1.56,3.15c-3.26,6.6-13.04,7.99-22.5,9.32-6.52.92-13.27,1.88-16.99,4.53-.76.52-1.49,1.03-2.2,1.53-5.19,3.64-10.1,7.08-17.38,7.08-.31,0-.63,0-.95-.02-4.63-.38-8.65-2.1-12.55-3.76-3.25-1.38-6.32-2.69-9.66-3.27-1.34-.27-2.75-.4-4.34-.4-2.33,0-4.75.28-7.1.55-2.41.28-4.9.56-7.35.56-.47,0-.94,0-1.41-.03-7.72-.33-15.06-3.58-21.23-9.38-10.38-9.47-14.31-24.66-10.75-41.66,1.86-9.08,6.92-16.49,11.82-23.66,2.3-3.36,4.67-6.84,6.69-10.44,3.81-6.77,6.05-12.41,6.86-17.25.56-4.79.67-10.33.32-16.39l-.09-1.47m110.37,100.99h0m-110.38-103.71c-.74,0-1.45.3-1.96.84-.53.55-.8,1.29-.76,2.04l.09,1.47c.34,5.87.24,11.2-.29,15.85-.76,4.51-2.9,9.84-6.53,16.3-1.96,3.51-4.3,6.93-6.56,10.24-5.05,7.39-10.26,15.03-12.24,24.65-3.76,17.96.46,34.08,11.58,44.22,6.62,6.23,14.56,9.73,22.94,10.09.48.02,1,.04,1.53.04,2.64,0,5.31-.31,7.66-.58,2.27-.26,4.61-.53,6.79-.53,1.4,0,2.65.11,3.8.34.02,0,.04,0,.07.01,3.04.53,5.96,1.77,9.06,3.09,3.9,1.67,8.32,3.55,13.39,3.97.04,0,.08,0,.12,0,.36.01.71.02,1.06.02,8.15,0,13.64-3.85,18.95-7.58.71-.5,1.42-1,2.18-1.52.01,0,.03-.02.04-.03,3.18-2.27,9.88-3.22,15.79-4.05,10.16-1.44,20.66-2.92,24.56-10.81l1.51-3.05c.21-.39.33-.83.33-1.3,0-1.49-1.19-2.7-2.67-2.72-.02,0-.04,0-.05,0-.08,0-.15,0-.23,0-.29.02-.57.09-.82.2l-3.21,1.26c-1.3.51-2.91.77-4.78.77-7.93,0-17.67-4.36-23.6-8.09-5.46-3.48-7.54-16.05-8.65-22.81l-.19-1.12c-1.71-9.9-3.85-19.48-11.29-28.03-4.27-5.02-9.43-8.18-14.42-11.24-4.52-2.77-8.79-5.39-12-9.18-3.7-4.5-7.26-9.9-8.08-18.68l-.11-1.21c-.13-1.38-1.27-2.44-2.66-2.47l-20.29-.39s-.04,0-.05,0h0Z"/>
          </g>
          <path class="cls-2" d="m83.75,269.14c.2,6.14,1.21,12.38,1.96,18.47.47,3.8,1.77,7.39,4.19,10.38,8.15,10.06,20.68,16.11,28.21,26.72,3.45,4.87,4.51,10.98,6.06,16.61,1.64,5.99,3.04,11.93,5.67,17.59,4.25,9.15,14.37,15.89,24.13,17.66,2.57.47,3.67-3.47,1.09-3.94-11.73-2.13-20.14-10.34-23.91-21.37-3.42-9.99-4.16-21.07-10.41-29.88-6.34-8.94-16.79-15.27-24.71-22.75-3.14-2.96-5.21-6.12-6.11-10.36-1.26-5.94-1.89-13.1-2.09-19.14-.09-2.63-4.17-2.63-4.08,0h0Z"/>
          <path class="cls-2" d="m178.61,367.91c-7.83,12.01-25.58,12.29-38.03,9.85-15.32-3-28.53-13.24-33.09-28.42-2.06-6.85-2.4-13.83-5.35-20.45-2.46-5.53-7.46-9.83-11.54-14.13-10.56-11.12-13.59-29.22-10.32-43.95.57-2.56-3.37-3.65-3.94-1.08-3.17,14.26-.96,32.34,8.1,44.13,5.17,6.73,11.98,11.55,15.26,19.64,3.23,7.97,3.04,16.68,6.89,24.56,7.02,14.37,22.85,22.77,38.27,24.51,13.12,1.48,29.41-.53,37.28-12.61,1.44-2.21-2.09-4.26-3.53-2.06h0Z"/>
          <path class="cls-2" d="m70.82,267.78c-.14,10.72.96,21.46-.61,32.12-1.29,8.77-5.69,16.96-8.95,25.09-5.47,13.67-7.48,30.11-.51,43.62,3.2,6.21,8.88,11.34,15.45,13.64,7.65,2.68,16.01.41,23.72,2.95,7.44,2.45,13.64,6.17,21.69,6.57,3.33.17,6.5-.74,9.41-2.27,2.07-1.09,4.01-2.3,6.2-3.17,2.85-1.13,6.13-.73,9.12-1.06,2.59-.29,2.62-4.37,0-4.08-3.48.38-6.83.19-10.21,1.21-3.34,1.01-6.1,3.33-9.32,4.59-7.63,3-16.48-1.97-23.34-4.76-6.36-2.58-12.37-2.45-19.11-2.75-9.55-.42-16.44-5.87-20.72-14.17-7.57-14.68-1.34-32.5,4.56-46.46,3.08-7.28,5.62-14.43,6.54-22.31,1.11-9.52.04-19.2.16-28.76.03-2.63-4.05-2.63-4.08,0h0Z"/>
          <path class="cls-2" d="m65.44,381.21c-7.86-5.36-12.79-14.97-15.41-23.88-.37-1.26-2.34-.72-1.97.54,2.79,9.48,8.01,19.41,16.35,25.11,1.09.74,2.11-1.03,1.03-1.76h0Z"/>
          <path class="cls-2" d="m54.35,356.88c-5.3-15.84-.27-35.29,10.17-48,.83-1.01-.61-2.46-1.44-1.44-10.88,13.26-16.24,33.41-10.69,49.98.42,1.24,2.39.71,1.97-.54h0Z"/>
          <path class="cls-2" d="m74.57,306.79c-1.74,19.05-18.96,37.35-5.07,55.64,2.64,3.47,6.38,6.19,10.18,8.27,4.51,2.48,9.89,1.84,14.69,3.3,5.35,1.63,10.24,5.12,15.42,7.26,5.19,2.15,10.93.52,16.33,1.36,1.29.2,1.84-1.77.54-1.97-3.87-.6-7.71-.19-11.6-.32-5.88-.19-11.63-4.37-16.8-6.86-3.31-1.59-6.53-2.3-10.16-2.67-6.46-.67-11.59-3.8-16.02-8.47-15.52-16.36,2.89-37.68,4.53-55.55.12-1.31-1.92-1.3-2.04,0h0Z"/>
          <path class="cls-2" d="m113.28,373.85c-5.39-1.05-10.4-4.37-14.41-8.02-5.36-4.87-4.58-13.09-4.88-19.67-.25-5.48-1.52-10.77-3.57-15.84-2.43-6.01-7.26-10.58-9.77-16.54-.5-1.19-2.48-.67-1.97.54,2.74,6.49,7.75,11.54,10.4,18.1,2.97,7.36,2.67,15.04,3.29,22.78.85,10.67,10.09,18.62,20.36,20.62,1.29.25,1.83-1.72.54-1.97h0Z"/>
          <path class="cls-2" d="m75.48,328.34c-.27,9.78-1.8,30.79,10.73,34.1,1.27.34,1.81-1.63.54-1.97-11.17-2.95-9.47-23.36-9.23-32.13.04-1.32-2-1.31-2.04,0h0Z"/>
          <path class="cls-2" d="m81.83,287.52c.97,8.43,6.03,17.5,10.85,24.36,5.09,7.24,13.46,11.37,18.09,18.91,5.52,8.99,4.39,20.75,9.53,30.04,3.89,7.03,11.64,11.9,19.43,13.17,1.29.21,1.84-1.76.54-1.97-9.75-1.59-17.31-8.3-20.52-17.55-2.82-8.13-3.07-17.07-7.23-24.72-3.25-5.98-9.52-9.67-14.23-14.34-3.26-3.24-5.74-7.14-7.92-11.16-2.71-4.99-5.86-11.09-6.51-16.75-.15-1.29-2.19-1.31-2.04,0h0Z"/>
          <path class="cls-2" d="m91.95,285.31c5.63,8.92,11.17,15.55,20.15,21.18,10.99,6.88,15.43,16.61,18.99,28.68,2.73,9.25,4.96,18.75,11.16,26.39,5.49,6.78,13.9,10.11,22.47,10,1.32-.02,1.32-2.06,0-2.04-10.34.14-18.73-5.01-24.09-13.75-5.22-8.51-6.7-19.2-9.92-28.54-2.77-8.03-6.95-15.03-13.88-20.07-3.94-2.87-8.26-5.05-11.99-8.22-4.72-4.01-7.87-9.49-11.13-14.66-.7-1.11-2.47-.09-1.76,1.03h0Z"/>
          <g>
            <rect class="cls-3" x="66.92" y="275.54" width="30.92" height="7.72" rx="1.43" ry="1.43"/>
            <path class="cls-2" d="m96.41,276.97v4.86h-28.07v-4.86h28.07m0-2.85h-28.07c-1.58,0-2.85,1.28-2.85,2.85v4.86c0,1.58,1.28,2.85,2.85,2.85h28.07c1.58,0,2.85-1.28,2.85-2.85v-4.86c0-1.58-1.28-2.85-2.85-2.85h0Z"/>
          </g>
          <g>
            <path class="cls-3" d="m68.34,277.99c-.79,0-1.43-.64-1.43-1.43v-6.46c0-3.04,2.66-5.51,5.92-5.51h19.08c3.26,0,5.92,2.47,5.92,5.51v6.46c0,.79-.64,1.43-1.43,1.43h-28.07Z"/>
            <path class="cls-2" d="m91.92,266.01c2.48,0,4.49,1.83,4.49,4.08v6.46h-28.07v-6.46c0-2.25,2.01-4.08,4.49-4.08h19.08m0-2.85h-19.08c-4.05,0-7.35,3.11-7.35,6.94v6.46c0,1.58,1.28,2.85,2.85,2.85h28.07c1.58,0,2.85-1.28,2.85-2.85v-6.46c0-3.83-3.29-6.94-7.35-6.94h0Z"/>
          </g>
          <g>
            <path class="cls-6" d="m82.51,61.5c-2.25,0-4.08-1.83-4.08-4.08s1.83-4.08,4.08-4.08,4.08,1.83,4.08,4.08-1.83,4.08-4.08,4.08Z"/>
            <path class="cls-2" d="m82.51,54.36c1.69,0,3.06,1.37,3.06,3.06s-1.37,3.06-3.06,3.06-3.06-1.37-3.06-3.06,1.37-3.06,3.06-3.06m0-2.04c-2.81,0-5.1,2.29-5.1,5.1s2.29,5.1,5.1,5.1,5.1-2.29,5.1-5.1-2.29-5.1-5.1-5.1h0Z"/>
          </g>
          <path class="cls-2" d="m97.06,283.36c2.97,7.96,8.75,6.88,15.9,8.22,5.36,1,7.53,6.12,10.28,10.2,2.93,4.36,8.35,6.42,10.23,11.52.45,1.22,2.43.7,1.97-.54-1.4-3.8-4.08-5.92-7.14-8.44-3.64-3-5.48-7.49-8.43-11.08-5.85-7.11-17.2-.69-20.83-10.42-.46-1.22-2.43-.69-1.97.54h0Z"/>
          <path class="cls-2" d="m38.47,343.72c-2.31-7.32-1.03-13.86,4.6-19.15,3.2-3.01,4.37-6.19,4.34-10.54-.02-4.12,1.64-6.94,5.19-9.1,1.84-1.12,3.03-2.61,4.2-4.4,3.87-5.91,7.16-12.24,10.82-18.28.69-1.13-1.08-2.15-1.76-1.03-3.67,6.05-7.25,12.18-10.82,18.28-2.91,4.97-8.84,5.19-9.67,11.45-.58,4.34.46,7.61-2.82,11.27-2.04,2.27-4.02,3.82-5.49,6.56-2.55,4.75-2.11,10.53-.55,15.48.39,1.25,2.37.72,1.97-.54h0Z"/>
          <path class="cls-2" d="m67.46,303.21c1.88-2.06,2.03-4.29,2.01-7.02-.03-4.56.85-8.86,2.33-13.16.43-1.25-1.54-1.78-1.97-.54-.94,2.72-1.75,5.5-2.1,8.36-.39,3.17.61,8.37-1.72,10.92-.89.97.55,2.42,1.44,1.44h0Z"/>
          <path class="cls-2" d="m94.26,284.83c5.88,5.4,7.95,13.52,15.16,17.56,4.39,2.46,7.81,4.37,11.4,8.04,3.5,3.57,8,5.82,10.02,10.6.51,1.21,2.27.17,1.76-1.03-1.79-4.22-4.94-6.17-8.32-9.05-2.97-2.53-5.32-5.56-8.58-7.77-2.01-1.35-4.38-2.06-6.49-3.24-2.41-1.35-4.14-3.67-5.62-5.92-2.5-3.78-4.51-7.53-7.88-10.63-.97-.89-2.42.55-1.44,1.44h0Z"/>
          <path class="cls-2" d="m166.31,390.15c1.32,0,1.32-2.04,0-2.04s-1.32,2.04,0,2.04h0Z"/>
        </g>
      </g>
    </g>
  </g>
</svg>